<svg width="210" height="184" viewBox="0 0 210 184" fill="none" xmlns="http://www.w3.org/2000/svg">
<path d="M70.0217 183.78C56.3284 183.78 44.1951 180.053 33.6217 172.6C23.2217 164.973 15.0751 154.227 9.18172 140.36C3.46172 126.493 0.60172 110.373 0.60172 92C0.60172 73.6267 3.46172 57.5067 9.18172 43.64C15.0751 29.7733 23.2217 19.1133 33.6217 11.66C44.1951 4.03333 56.3284 0.219998 70.0217 0.219998C83.7151 0.219998 95.7617 4.03333 106.162 11.66C116.735 19.1133 124.882 29.7733 130.602 43.64C136.495 57.5067 139.442 73.6267 139.442 92C139.442 110.373 136.495 126.493 130.602 140.36C124.882 154.227 116.735 164.973 106.162 172.6C95.7617 180.053 83.7151 183.78 70.0217 183.78ZM70.0217 178.84C82.6751 178.84 93.8551 175.287 103.562 168.18C113.268 161.073 120.808 151.02 126.182 138.02C131.555 124.847 134.242 109.507 134.242 92C134.242 74.4933 131.555 59.24 126.182 46.24C120.808 33.0667 113.268 22.9267 103.562 15.82C93.8551 8.71333 82.6751 5.16 70.0217 5.16C57.3684 5.16 46.1884 8.71333 36.4817 15.82C26.7751 22.9267 19.2351 33.0667 13.8617 46.24C8.48839 59.24 5.80172 74.4933 5.80172 92C5.80172 109.507 8.48839 124.847 13.8617 138.02C19.2351 151.02 26.7751 161.073 36.4817 168.18C46.1884 175.287 57.3684 178.84 70.0217 178.84ZM209.211 0.999988V183H204.271V5.93999H157.471V0.999988H209.211Z" fill="url(#paint0_linear_17_457)"/>
<defs>
<linearGradient id="paint0_linear_17_457" x1="114.5" y1="-20" x2="114.5" y2="200" gradientUnits="userSpaceOnUse">
<stop stop-color="white"/>
<stop offset="1" stop-color="#191E24"/>
</linearGradient>
</defs>
</svg>
