<svg width="109" height="166" viewBox="0 0 109 166" fill="none" xmlns="http://www.w3.org/2000/svg">
<path d="M26.893 77.3C21.6263 77.3 16.9596 75.8667 12.893 73C8.89297 70.0667 5.75964 65.9667 3.49297 60.7C1.29297 55.3667 0.192969 49.1333 0.192969 42C0.192969 34.8667 1.29297 28.6667 3.49297 23.4C5.75964 18.0667 8.89297 13.9667 12.893 11.1C16.9596 8.16666 21.6263 6.7 26.893 6.7C32.2263 6.7 36.893 8.16666 40.893 11.1C44.893 13.9667 47.993 18.0667 50.193 23.4C52.4596 28.6667 53.593 34.8667 53.593 42C53.593 49.1333 52.4596 55.3667 50.193 60.7C47.993 65.9667 44.893 70.0667 40.893 73C36.893 75.8667 32.2263 77.3 26.893 77.3ZM26.893 75.4C31.8263 75.4 36.1263 74.0333 39.793 71.3C43.5263 68.5667 46.4263 64.7 48.493 59.7C50.5596 54.7 51.593 48.8 51.593 42C51.593 35.1333 50.5596 29.2333 48.493 24.3C46.4263 19.3 43.5263 15.4333 39.793 12.7C36.1263 9.96667 31.8263 8.6 26.893 8.6C22.0263 8.6 17.7263 9.96667 13.993 12.7C10.2596 15.4333 7.35964 19.3 5.29297 24.3C3.2263 29.2333 2.19297 35.1333 2.19297 42C2.19297 48.8 3.2263 54.7 5.29297 59.7C7.35964 64.7 10.2596 68.5667 13.993 71.3C17.7263 74.0333 22.0263 75.4 26.893 75.4ZM78.5273 77V8.1L79.4273 8.89999H60.5273V7H80.4273V77H78.5273Z" fill="url(#paint0_linear_81_188)"/>
<defs>
<linearGradient id="paint0_linear_81_188" x1="44" y1="0" x2="44" y2="82" gradientUnits="userSpaceOnUse">
<stop stop-color="white"/>
<stop offset="1" stop-color="#191E24"/>
</linearGradient>
</defs>
</svg>
