<svg width="81" height="72" viewBox="0 0 81 72" fill="none" xmlns="http://www.w3.org/2000/svg">
<path d="M26.893 71.3C21.6263 71.3 16.9596 69.8667 12.893 67C8.89297 64.0667 5.75964 59.9333 3.49297 54.6C1.29297 49.2667 0.192969 43.0667 0.192969 36C0.192969 28.9333 1.29297 22.7333 3.49297 17.4C5.75964 12.0667 8.89297 7.96666 12.893 5.1C16.9596 2.16666 21.6263 0.699999 26.893 0.699999C32.1596 0.699999 36.793 2.16666 40.793 5.1C44.8596 7.96666 47.993 12.0667 50.193 17.4C52.4596 22.7333 53.593 28.9333 53.593 36C53.593 43.0667 52.4596 49.2667 50.193 54.6C47.993 59.9333 44.8596 64.0667 40.793 67C36.793 69.8667 32.1596 71.3 26.893 71.3ZM26.893 69.4C31.7596 69.4 36.0596 68.0333 39.793 65.3C43.5263 62.5667 46.4263 58.7 48.493 53.7C50.5596 48.6333 51.593 42.7333 51.593 36C51.593 29.2667 50.5596 23.4 48.493 18.4C46.4263 13.3333 43.5263 9.43333 39.793 6.7C36.0596 3.96667 31.7596 2.6 26.893 2.6C22.0263 2.6 17.7263 3.96667 13.993 6.7C10.2596 9.43333 7.35964 13.3333 5.29297 18.4C3.2263 23.4 2.19297 29.2667 2.19297 36C2.19297 42.7333 3.2263 48.6333 5.29297 53.7C7.35964 58.7 10.2596 62.5667 13.993 65.3C17.7263 68.0333 22.0263 69.4 26.893 69.4ZM80.4273 0.999995V71H78.5273V2.89999H60.5273V0.999995H80.4273Z" fill="url(#paint0_linear_81_189)"/>
<defs>
<linearGradient id="paint0_linear_81_189" x1="44" y1="-6" x2="44" y2="76" gradientUnits="userSpaceOnUse">
<stop stop-color="white"/>
<stop offset="1" stop-color="#191E24"/>
</linearGradient>
</defs>
</svg>
