<svg width="356" height="280" viewBox="0 0 356 280" fill="none" xmlns="http://www.w3.org/2000/svg">
<path d="M72.3459 203.78C58.6526 203.78 46.5193 200.053 35.9459 192.6C25.5459 184.973 17.3993 174.227 11.5059 160.36C5.78594 146.493 2.92594 130.373 2.92594 112C2.92594 93.6267 5.78594 77.5067 11.5059 63.64C17.3993 49.7733 25.5459 39.1133 35.9459 31.66C46.5193 24.0333 58.6526 20.22 72.3459 20.22C86.0393 20.22 98.0859 24.0333 108.486 31.66C119.059 39.1133 127.206 49.7733 132.926 63.64C138.819 77.5067 141.766 93.6267 141.766 112C141.766 130.373 138.819 146.493 132.926 160.36C127.206 174.227 119.059 184.973 108.486 192.6C98.0859 200.053 86.0393 203.78 72.3459 203.78ZM72.3459 198.84C84.9993 198.84 96.1793 195.287 105.886 188.18C115.593 181.073 123.133 171.02 128.506 158.02C133.879 144.847 136.566 129.507 136.566 112C136.566 94.4933 133.879 79.24 128.506 66.24C123.133 53.0667 115.593 42.9267 105.886 35.82C96.1793 28.7133 84.9993 25.16 72.3459 25.16C59.6926 25.16 48.5126 28.7133 38.8059 35.82C29.0993 42.9267 21.5593 53.0667 16.1859 66.24C10.8126 79.24 8.12594 94.4933 8.12594 112C8.12594 129.507 10.8126 144.847 16.1859 158.02C21.5593 171.02 29.0993 181.073 38.8059 188.18C48.5126 195.287 59.6926 198.84 72.3459 198.84ZM290.055 198.06V203H168.375V199.1L247.155 119.28C258.075 108.187 265.442 98.8267 269.255 91.2C273.069 83.4 274.975 75.34 274.975 67.02C274.975 54.02 270.555 43.7933 261.715 36.34C253.049 28.8867 240.569 25.16 224.275 25.16C211.795 25.16 200.962 26.98 191.775 30.62C182.589 34.26 174.702 39.8067 168.115 47.26L164.475 43.62C178.515 28.02 198.449 20.22 224.275 20.22C241.435 20.22 255.042 24.38 265.095 32.7C275.149 41.02 280.175 52.3733 280.175 66.76C280.175 75.9467 278.095 84.7 273.935 93.02C269.775 101.34 262.062 111.22 250.795 122.66L176.435 198.06H290.055Z" fill="url(#paint0_linear_17_468)"/>
<rect y="170" width="356" height="50" fill="#191E24"/>
<defs>
<linearGradient id="paint0_linear_17_468" x1="144.5" y1="0" x2="144.5" y2="220" gradientUnits="userSpaceOnUse">
<stop stop-color="white"/>
<stop offset="1" stop-color="#191E24"/>
</linearGradient>
</defs>
</svg>
