<svg width="111" height="166" viewBox="0 0 111 166" fill="none" xmlns="http://www.w3.org/2000/svg">
<path d="M27.2484 77.3C21.9818 77.3 17.3151 75.8667 13.2484 73C9.24844 70.0667 6.1151 65.9333 3.84844 60.6C1.64844 55.2667 0.548438 49.0667 0.548438 42C0.548438 34.9333 1.64844 28.7333 3.84844 23.4C6.1151 18.0667 9.24844 13.9667 13.2484 11.1C17.3151 8.16666 21.9818 6.7 27.2484 6.7C32.5151 6.7 37.1484 8.16666 41.1484 11.1C45.2151 13.9667 48.3484 18.0667 50.5484 23.4C52.8151 28.7333 53.9484 34.9333 53.9484 42C53.9484 49.0667 52.8151 55.2667 50.5484 60.6C48.3484 65.9333 45.2151 70.0667 41.1484 73C37.1484 75.8667 32.5151 77.3 27.2484 77.3ZM27.2484 75.4C32.1151 75.4 36.4151 74.0333 40.1484 71.3C43.8818 68.5667 46.7818 64.7 48.8484 59.7C50.9151 54.6333 51.9484 48.7333 51.9484 42C51.9484 35.2667 50.9151 29.4 48.8484 24.4C46.7818 19.3333 43.8818 15.4333 40.1484 12.7C36.4151 9.96667 32.1151 8.6 27.2484 8.6C22.3818 8.6 18.0818 9.96667 14.3484 12.7C10.6151 15.4333 7.7151 19.3333 5.64844 24.4C3.58177 29.4 2.54844 35.2667 2.54844 42C2.54844 48.7333 3.58177 54.6333 5.64844 59.7C7.7151 64.7 10.6151 68.5667 14.3484 71.3C18.0818 74.0333 22.3818 75.4 27.2484 75.4ZM110.983 75.1V77H64.1828V75.5L94.4828 44.8C98.6828 40.5333 101.516 36.9333 102.983 34C104.449 31 105.183 27.9 105.183 24.7C105.183 19.7 103.483 15.7667 100.083 12.9C96.7495 10.0333 91.9495 8.6 85.6828 8.6C80.8828 8.6 76.7161 9.3 73.1828 10.7C69.6495 12.1 66.6161 14.2333 64.0828 17.1L62.6828 15.7C68.0828 9.7 75.7495 6.7 85.6828 6.7C92.2828 6.7 97.5161 8.3 101.383 11.5C105.249 14.7 107.183 19.0667 107.183 24.6C107.183 28.1333 106.383 31.5 104.783 34.7C103.183 37.9 100.216 41.7 95.8828 46.1L67.2828 75.1H110.983Z" fill="url(#paint0_linear_81_215)"/>
<defs>
<linearGradient id="paint0_linear_81_215" x1="55" y1="0" x2="55" y2="82" gradientUnits="userSpaceOnUse">
<stop stop-color="white"/>
<stop offset="1" stop-color="#191E24"/>
</linearGradient>
</defs>
</svg>
