<svg width="391" height="237" viewBox="0 0 391 237" fill="none" xmlns="http://www.w3.org/2000/svg">
<path d="M73.5041 203.78C59.8108 203.78 47.6775 200.053 37.1041 192.6C26.7041 184.973 18.5575 174.227 12.6641 160.36C6.94414 146.493 4.08414 130.373 4.08414 112C4.08414 93.6267 6.94414 77.5067 12.6641 63.64C18.5575 49.7733 26.7041 39.1133 37.1041 31.66C47.6775 24.0333 59.8108 20.22 73.5041 20.22C87.1975 20.22 99.2441 24.0333 109.644 31.66C120.217 39.1133 128.364 49.7733 134.084 63.64C139.977 77.5067 142.924 93.6267 142.924 112C142.924 130.373 139.977 146.493 134.084 160.36C128.364 174.227 120.217 184.973 109.644 192.6C99.2441 200.053 87.1975 203.78 73.5041 203.78ZM73.5041 198.84C86.1575 198.84 97.3375 195.287 107.044 188.18C116.751 181.073 124.291 171.02 129.664 158.02C135.037 144.847 137.724 129.507 137.724 112C137.724 94.4933 135.037 79.24 129.664 66.24C124.291 53.0667 116.751 42.9267 107.044 35.82C97.3375 28.7133 86.1575 25.16 73.5041 25.16C60.8508 25.16 49.6708 28.7133 39.9641 35.82C30.2575 42.9267 22.7175 53.0667 17.3441 66.24C11.9708 79.24 9.28414 94.4933 9.28414 112C9.28414 129.507 11.9708 144.847 17.3441 158.02C22.7175 171.02 30.2575 181.073 39.9641 188.18C49.6708 195.287 60.8508 198.84 73.5041 198.84ZM219.514 102.38C240.314 102.38 256.088 106.973 266.834 116.16C277.754 125.173 283.214 137.48 283.214 153.08C283.214 168.507 277.928 180.813 267.354 190C256.954 199.187 242.221 203.78 223.154 203.78C209.634 203.78 197.241 201.44 185.974 196.76C174.708 191.907 166.301 185.667 160.754 178.04L164.134 174.66C169.334 181.767 177.221 187.573 187.794 192.08C198.368 196.587 210.154 198.84 223.154 198.84C240.834 198.84 254.354 194.767 263.714 186.62C273.248 178.473 278.014 167.293 278.014 153.08C278.014 138.693 273.161 127.513 263.454 119.54C253.748 111.393 239.188 107.32 219.774 107.32H210.414V103.42L269.434 25.94H166.474V21H276.454V24.9L217.434 102.38H219.514Z" fill="url(#paint0_linear_17_480)"/>
<rect y="170" width="391" height="50" fill="#191E24"/>
<defs>
<linearGradient id="paint0_linear_17_480" x1="143.5" y1="0" x2="143.5" y2="220" gradientUnits="userSpaceOnUse">
<stop stop-color="white"/>
<stop offset="1" stop-color="#191E24"/>
</linearGradient>
</defs>
</svg>
