<svg width="109" height="166" viewBox="0 0 109 166" fill="none" xmlns="http://www.w3.org/2000/svg">
<path d="M28.0785 77.3C22.8118 77.3 18.1452 75.8667 14.0785 73C10.0785 70.0667 6.94518 65.9333 4.67852 60.6C2.47852 55.2667 1.37852 49.0667 1.37852 42C1.37852 34.9333 2.47852 28.7333 4.67852 23.4C6.94518 18.0667 10.0785 13.9667 14.0785 11.1C18.1452 8.16666 22.8118 6.7 28.0785 6.7C33.3452 6.7 37.9785 8.16666 41.9785 11.1C46.0452 13.9667 49.1785 18.0667 51.3785 23.4C53.6452 28.7333 54.7785 34.9333 54.7785 42C54.7785 49.0667 53.6452 55.2667 51.3785 60.6C49.1785 65.9333 46.0452 70.0667 41.9785 73C37.9785 75.8667 33.3452 77.3 28.0785 77.3ZM28.0785 75.4C32.9452 75.4 37.2452 74.0333 40.9785 71.3C44.7119 68.5667 47.6119 64.7 49.6785 59.7C51.7452 54.6333 52.7785 48.7333 52.7785 42C52.7785 35.2667 51.7452 29.4 49.6785 24.4C47.6119 19.3333 44.7119 15.4333 40.9785 12.7C37.2452 9.96667 32.9452 8.6 28.0785 8.6C23.2119 8.6 18.9119 9.96667 15.1785 12.7C11.4452 15.4333 8.54518 19.3333 6.47852 24.4C4.41185 29.4 3.37852 35.2667 3.37852 42C3.37852 48.7333 4.41185 54.6333 6.47852 59.7C8.54518 64.7 11.4452 68.5667 15.1785 71.3C18.9119 74.0333 23.2119 75.4 28.0785 75.4ZM84.2363 38.3C92.2363 38.3 98.303 40.0667 102.436 43.6C106.636 47.0667 108.736 51.8 108.736 57.8C108.736 63.7333 106.703 68.4667 102.636 72C98.6363 75.5333 92.9697 77.3 85.6363 77.3C80.4363 77.3 75.6697 76.4 71.3363 74.6C67.003 72.7333 63.7697 70.3333 61.6363 67.4L62.9363 66.1C64.9363 68.8333 67.9697 71.0667 72.0363 72.8C76.103 74.5333 80.6363 75.4 85.6363 75.4C92.4363 75.4 97.6363 73.8333 101.236 70.7C104.903 67.5667 106.736 63.2667 106.736 57.8C106.736 52.2667 104.87 47.9667 101.136 44.9C97.403 41.7667 91.803 40.2 84.3363 40.2H80.7363V38.7L103.436 8.89999H63.8363V7H106.136V8.49999L83.4363 38.3H84.2363Z" fill="url(#paint0_linear_81_232)"/>
<defs>
<linearGradient id="paint0_linear_81_232" x1="55" y1="0" x2="55" y2="82" gradientUnits="userSpaceOnUse">
<stop stop-color="white"/>
<stop offset="1" stop-color="#191E24"/>
</linearGradient>
</defs>
</svg>
