<svg width="391" height="221" viewBox="0 0 391 221" fill="none" xmlns="http://www.w3.org/2000/svg">
<path d="M74.2932 203.78C60.5999 203.78 48.4665 200.053 37.8932 192.6C27.4932 184.973 19.3465 174.227 13.4532 160.36C7.7332 146.493 4.8732 130.373 4.8732 112C4.8732 93.6267 7.7332 77.5067 13.4532 63.64C19.3465 49.7733 27.4932 39.1133 37.8932 31.66C48.4665 24.0333 60.5999 20.22 74.2932 20.22C87.9865 20.22 100.033 24.0333 110.433 31.66C121.007 39.1133 129.153 49.7733 134.873 63.64C140.767 77.5067 143.713 93.6267 143.713 112C143.713 130.373 140.767 146.493 134.873 160.36C129.153 174.227 121.007 184.973 110.433 192.6C100.033 200.053 87.9865 203.78 74.2932 203.78ZM74.2932 198.84C86.9465 198.84 98.1265 195.287 107.833 188.18C117.54 181.073 125.08 171.02 130.453 158.02C135.827 144.847 138.513 129.507 138.513 112C138.513 94.4933 135.827 79.24 130.453 66.24C125.08 53.0667 117.54 42.9267 107.833 35.82C98.1265 28.7133 86.9465 25.16 74.2932 25.16C61.6399 25.16 50.4599 28.7133 40.7532 35.82C31.0465 42.9267 23.5065 53.0667 18.1332 66.24C12.7599 79.24 10.0732 94.4933 10.0732 112C10.0732 129.507 12.7599 144.847 18.1332 158.02C23.5065 171.02 31.0465 181.073 40.7532 188.18C50.4599 195.287 61.6399 198.84 74.2932 198.84ZM322.163 148.92H281.603V203H276.403V148.92H171.103V145.02L273.543 21H279.783L178.123 143.98H276.403V96.4H281.603V143.98H322.163V148.92Z" fill="url(#paint0_linear_17_492)"/>
<rect y="171" width="391" height="50" fill="#191E24"/>
<defs>
<linearGradient id="paint0_linear_17_492" x1="158" y1="0" x2="158" y2="220" gradientUnits="userSpaceOnUse">
<stop stop-color="white"/>
<stop offset="1" stop-color="#191E24"/>
</linearGradient>
</defs>
</svg>
