<svg width="123" height="166" viewBox="0 0 123 166" fill="none" xmlns="http://www.w3.org/2000/svg">
<path d="M26.8051 77.3C21.5384 77.3 16.8717 75.8667 12.8051 73C8.80508 70.0667 5.67175 65.9333 3.40508 60.6C1.20508 55.2667 0.105079 49.0667 0.105079 42C0.105079 34.9333 1.20508 28.7333 3.40508 23.4C5.67175 18.0667 8.80508 13.9667 12.8051 11.1C16.8717 8.16666 21.5384 6.7 26.8051 6.7C32.0717 6.7 36.7051 8.16666 40.7051 11.1C44.7717 13.9667 47.9051 18.0667 50.1051 23.4C52.3717 28.7333 53.5051 34.9333 53.5051 42C53.5051 49.0667 52.3717 55.2667 50.1051 60.6C47.9051 65.9333 44.7717 70.0667 40.7051 73C36.7051 75.8667 32.0717 77.3 26.8051 77.3ZM26.8051 75.4C31.6717 75.4 35.9717 74.0333 39.7051 71.3C43.4384 68.5667 46.3384 64.7 48.4051 59.7C50.4717 54.6333 51.5051 48.7333 51.5051 42C51.5051 35.2667 50.4717 29.4 48.4051 24.4C46.3384 19.3333 43.4384 15.4333 39.7051 12.7C35.9717 9.96667 31.6717 8.6 26.8051 8.6C21.9384 8.6 17.6384 9.96667 13.9051 12.7C10.1717 15.4333 7.27175 19.3333 5.20508 24.4C3.13841 29.4 2.10508 35.2667 2.10508 42C2.10508 48.7333 3.13841 54.6333 5.20508 59.7C7.27175 64.7 10.1717 68.5667 13.9051 71.3C17.6384 74.0333 21.9384 75.4 26.8051 75.4ZM122.139 56.2H106.539V77H104.539V56.2H64.0395V54.7L103.439 7H105.839L66.7395 54.3H104.539V36H106.539V54.3H122.139V56.2Z" fill="url(#paint0_linear_81_245)"/>
<defs>
<linearGradient id="paint0_linear_81_245" x1="59" y1="0" x2="59" y2="82" gradientUnits="userSpaceOnUse">
<stop stop-color="white"/>
<stop offset="1" stop-color="#191E24"/>
</linearGradient>
</defs>
</svg>
