<svg width="356" height="220" viewBox="0 0 356 220" fill="none" xmlns="http://www.w3.org/2000/svg">
<path d="M73.2346 203.78C59.5413 203.78 47.4079 200.053 36.8346 192.6C26.4346 184.973 18.2879 174.227 12.3946 160.36C6.67461 146.493 3.81461 130.373 3.81461 112C3.81461 93.6267 6.67461 77.5067 12.3946 63.64C18.2879 49.7733 26.4346 39.1133 36.8346 31.66C47.4079 24.0333 59.5413 20.22 73.2346 20.22C86.9279 20.22 98.9746 24.0333 109.375 31.66C119.948 39.1133 128.095 49.7733 133.815 63.64C139.708 77.5067 142.655 93.6267 142.655 112C142.655 130.373 139.708 146.493 133.815 160.36C128.095 174.227 119.948 184.973 109.375 192.6C98.9746 200.053 86.9279 203.78 73.2346 203.78ZM73.2346 198.84C85.8879 198.84 97.0679 195.287 106.775 188.18C116.481 181.073 124.021 171.02 129.395 158.02C134.768 144.847 137.455 129.507 137.455 112C137.455 94.4933 134.768 79.24 129.395 66.24C124.021 53.0667 116.481 42.9267 106.775 35.82C97.0679 28.7133 85.8879 25.16 73.2346 25.16C60.5813 25.16 49.4013 28.7133 39.6946 35.82C29.9879 42.9267 22.4479 53.0667 17.0746 66.24C11.7013 79.24 9.01461 94.4933 9.01461 112C9.01461 129.507 11.7013 144.847 17.0746 158.02C22.4479 171.02 29.9879 181.073 39.6946 188.18C49.4013 195.287 60.5813 198.84 73.2346 198.84ZM213.204 99.78C240.071 99.78 259.397 104.287 271.184 113.3C282.971 122.14 288.864 135.053 288.864 152.04C288.864 167.293 283.577 179.773 273.004 189.48C262.604 199.013 247.697 203.78 228.284 203.78C215.111 203.78 202.891 201.44 191.624 196.76C180.357 191.907 171.951 185.667 166.404 178.04L169.784 174.66C174.984 181.767 182.871 187.573 193.444 192.08C204.017 196.587 215.631 198.84 228.284 198.84C246.311 198.84 260.004 194.593 269.364 186.1C278.897 177.433 283.664 166.08 283.664 152.04C283.664 136.44 278.204 124.653 267.284 116.68C256.364 108.707 237.991 104.72 212.164 104.72H177.844L187.464 21H279.764V25.94H191.884L183.304 99.78H213.204Z" fill="url(#paint0_linear_17_504)"/>
<rect y="170" width="356" height="50" fill="#191E24"/>
<defs>
<linearGradient id="paint0_linear_17_504" x1="144.5" y1="0" x2="144.5" y2="220" gradientUnits="userSpaceOnUse">
<stop stop-color="white"/>
<stop offset="1" stop-color="#191E24"/>
</linearGradient>
</defs>
</svg>
