<svg width="111" height="166" viewBox="0 0 111 166" fill="none" xmlns="http://www.w3.org/2000/svg">
<path d="M27.5902 77.3C22.3236 77.3 17.6569 75.8667 13.5902 73C9.59023 70.0667 6.4569 65.9333 4.19024 60.6C1.99023 55.2667 0.890235 49.0667 0.890235 42C0.890235 34.9333 1.99023 28.7333 4.19024 23.4C6.4569 18.0667 9.59023 13.9667 13.5902 11.1C17.6569 8.16666 22.3236 6.7 27.5902 6.7C32.8569 6.7 37.4902 8.16666 41.4902 11.1C45.5569 13.9667 48.6902 18.0667 50.8902 23.4C53.1569 28.7333 54.2902 34.9333 54.2902 42C54.2902 49.0667 53.1569 55.2667 50.8902 60.6C48.6902 65.9333 45.5569 70.0667 41.4902 73C37.4902 75.8667 32.8569 77.3 27.5902 77.3ZM27.5902 75.4C32.4569 75.4 36.7569 74.0333 40.4902 71.3C44.2236 68.5667 47.1236 64.7 49.1902 59.7C51.2569 54.6333 52.2902 48.7333 52.2902 42C52.2902 35.2667 51.2569 29.4 49.1902 24.4C47.1236 19.3333 44.2236 15.4333 40.4902 12.7C36.7569 9.96667 32.4569 8.6 27.5902 8.6C22.7236 8.6 18.4236 9.96667 14.6902 12.7C10.9569 15.4333 8.0569 19.3333 5.99024 24.4C3.92357 29.4 2.89023 35.2667 2.89023 42C2.89023 48.7333 3.92357 54.6333 5.99024 59.7C8.0569 64.7 10.9569 68.5667 14.6902 71.3C18.4236 74.0333 22.7236 75.4 27.5902 75.4ZM81.4246 37.3C91.7579 37.3 99.1913 39.0333 103.725 42.5C108.258 45.9 110.525 50.8667 110.525 57.4C110.525 63.2667 108.491 68.0667 104.425 71.8C100.425 75.4667 94.6913 77.3 87.2246 77.3C82.1579 77.3 77.4579 76.4 73.1246 74.6C68.7913 72.7333 65.5579 70.3333 63.4246 67.4L64.7246 66.1C66.7246 68.8333 69.7579 71.0667 73.8246 72.8C77.8913 74.5333 82.3579 75.4 87.2246 75.4C94.1579 75.4 99.4246 73.7667 103.025 70.5C106.691 67.1667 108.525 62.8 108.525 57.4C108.525 51.4 106.425 46.8667 102.225 43.8C98.0246 40.7333 90.9579 39.2 81.0246 39.2H67.8246L71.5246 7H107.025V8.89999H73.2246L69.9246 37.3H81.4246Z" fill="url(#paint0_linear_81_258)"/>
<defs>
<linearGradient id="paint0_linear_81_258" x1="55" y1="0" x2="55" y2="82" gradientUnits="userSpaceOnUse">
<stop stop-color="white"/>
<stop offset="1" stop-color="#191E24"/>
</linearGradient>
</defs>
</svg>
