<svg width="356" height="280" viewBox="0 0 356 280" fill="none" xmlns="http://www.w3.org/2000/svg">
<path d="M72.5217 203.78C58.8284 203.78 46.6951 200.053 36.1217 192.6C25.7217 184.973 17.5751 174.227 11.6817 160.36C5.96172 146.493 3.10172 130.373 3.10172 112C3.10172 93.6267 5.96172 77.5067 11.6817 63.64C17.5751 49.7733 25.7217 39.1133 36.1217 31.66C46.6951 24.0333 58.8284 20.22 72.5217 20.22C86.2151 20.22 98.2617 24.0333 108.662 31.66C119.235 39.1133 127.382 49.7733 133.102 63.64C138.995 77.5067 141.942 93.6267 141.942 112C141.942 130.373 138.995 146.493 133.102 160.36C127.382 174.227 119.235 184.973 108.662 192.6C98.2617 200.053 86.2151 203.78 72.5217 203.78ZM72.5217 198.84C85.1751 198.84 96.3551 195.287 106.062 188.18C115.768 181.073 123.308 171.02 128.682 158.02C134.055 144.847 136.742 129.507 136.742 112C136.742 94.4933 134.055 79.24 128.682 66.24C123.308 53.0667 115.768 42.9267 106.062 35.82C96.3551 28.7133 85.1751 25.16 72.5217 25.16C59.8684 25.16 48.6884 28.7133 38.9817 35.82C29.2751 42.9267 21.7351 53.0667 16.3617 66.24C10.9884 79.24 8.30172 94.4933 8.30172 112C8.30172 129.507 10.9884 144.847 16.3617 158.02C21.7351 171.02 29.2751 181.073 38.9817 188.18C48.6884 195.287 59.8684 198.84 72.5217 198.84ZM241.871 97.44C260.071 97.44 274.544 102.293 285.291 112C296.211 121.533 301.671 134.36 301.671 150.48C301.671 161.053 299.158 170.413 294.131 178.56C289.278 186.533 282.431 192.773 273.591 197.28C264.924 201.613 254.958 203.78 243.691 203.78C220.464 203.78 202.784 195.72 190.651 179.6C178.691 163.307 172.711 140.773 172.711 112C172.711 92.0667 175.918 75.2533 182.331 61.56C188.744 47.8667 197.758 37.5533 209.371 30.62C220.984 23.6867 234.591 20.22 250.191 20.22C266.658 20.22 279.571 23.08 288.931 28.8L286.331 33.22C277.838 27.8467 265.791 25.16 250.191 25.16C227.831 25.16 210.151 32.5267 197.151 47.26C184.324 61.9933 177.911 83.4 177.911 111.48C177.911 123.613 179.124 134.447 181.551 143.98C183.804 129.593 190.478 118.24 201.571 109.92C212.838 101.6 226.271 97.44 241.871 97.44ZM243.691 198.84C254.091 198.84 263.278 196.847 271.251 192.86C279.224 188.873 285.378 183.24 289.711 175.96C294.218 168.507 296.471 160.013 296.471 150.48C296.471 135.92 291.531 124.307 281.651 115.64C271.944 106.8 258.684 102.38 241.871 102.38C230.951 102.38 221.244 104.547 212.751 108.88C204.258 113.213 197.671 119.107 192.991 126.56C188.311 133.84 185.971 141.987 185.971 151C185.971 158.973 188.138 166.687 192.471 174.14C196.978 181.42 203.564 187.4 212.231 192.08C221.071 196.587 231.558 198.84 243.691 198.84Z" fill="url(#paint0_linear_17_516)"/>
<rect y="171" width="356" height="50" fill="#191E24"/>
<defs>
<linearGradient id="paint0_linear_17_516" x1="149.5" y1="0" x2="149.5" y2="220" gradientUnits="userSpaceOnUse">
<stop stop-color="white"/>
<stop offset="1" stop-color="#191E24"/>
</linearGradient>
</defs>
</svg>
