<svg width="116" height="166" viewBox="0 0 116 166" fill="none" xmlns="http://www.w3.org/2000/svg">
<path d="M27.393 77.3C22.1263 77.3 17.4596 75.8667 13.393 73C9.39297 70.0667 6.25964 65.9333 3.99297 60.6C1.79297 55.2667 0.692969 49.0667 0.692969 42C0.692969 34.9333 1.79297 28.7333 3.99297 23.4C6.25964 18.0667 9.39297 13.9667 13.393 11.1C17.4596 8.16666 22.1263 6.7 27.393 6.7C32.6596 6.7 37.293 8.16666 41.293 11.1C45.3596 13.9667 48.493 18.0667 50.693 23.4C52.9596 28.7333 54.093 34.9333 54.093 42C54.093 49.0667 52.9596 55.2667 50.693 60.6C48.493 65.9333 45.3596 70.0667 41.293 73C37.293 75.8667 32.6596 77.3 27.393 77.3ZM27.393 75.4C32.2596 75.4 36.5596 74.0333 40.293 71.3C44.0263 68.5667 46.9263 64.7 48.993 59.7C51.0596 54.6333 52.093 48.7333 52.093 42C52.093 35.2667 51.0596 29.4 48.993 24.4C46.9263 19.3333 44.0263 15.4333 40.293 12.7C36.5596 9.96667 32.2596 8.6 27.393 8.6C22.5263 8.6 18.2263 9.96667 14.493 12.7C10.7596 15.4333 7.85964 19.3333 5.79297 24.4C3.7263 29.4 2.69297 35.2667 2.69297 42C2.69297 48.7333 3.7263 54.6333 5.79297 59.7C7.85964 64.7 10.7596 68.5667 14.493 71.3C18.2263 74.0333 22.5263 75.4 27.393 75.4ZM92.5273 36.4C99.5273 36.4 105.094 38.2667 109.227 42C113.427 45.6667 115.527 50.6 115.527 56.8C115.527 60.8667 114.561 64.4667 112.627 67.6C110.761 70.6667 108.127 73.0667 104.727 74.8C101.394 76.4667 97.5607 77.3 93.2273 77.3C84.294 77.3 77.494 74.2 72.8273 68C68.2273 61.7333 65.9273 53.0667 65.9273 42C65.9273 34.3333 67.1607 27.8667 69.6273 22.6C72.094 17.3333 75.5607 13.3667 80.0273 10.7C84.494 8.03333 89.7273 6.7 95.7273 6.7C102.061 6.7 107.027 7.8 110.627 10L109.627 11.7C106.361 9.63333 101.727 8.6 95.7273 8.6C87.1273 8.6 80.3273 11.4333 75.3273 17.1C70.394 22.7667 67.9273 31 67.9273 41.8C67.9273 46.4667 68.394 50.6333 69.3273 54.3C70.194 48.7667 72.7607 44.4 77.0273 41.2C81.3607 38 86.5273 36.4 92.5273 36.4ZM93.2273 75.4C97.2273 75.4 100.761 74.6333 103.827 73.1C106.894 71.5667 109.261 69.4 110.927 66.6C112.661 63.7333 113.527 60.4667 113.527 56.8C113.527 51.2 111.627 46.7333 107.827 43.4C104.094 40 98.994 38.3 92.5273 38.3C88.3273 38.3 84.594 39.1333 81.3273 40.8C78.0607 42.4667 75.5273 44.7333 73.7273 47.6C71.9273 50.4 71.0273 53.5333 71.0273 57C71.0273 60.0667 71.8607 63.0333 73.5273 65.9C75.2607 68.7 77.794 71 81.1273 72.8C84.5273 74.5333 88.5607 75.4 93.2273 75.4Z" fill="url(#paint0_linear_81_271)"/>
<defs>
<linearGradient id="paint0_linear_81_271" x1="57" y1="0" x2="57" y2="82" gradientUnits="userSpaceOnUse">
<stop stop-color="white"/>
<stop offset="1" stop-color="#191E24"/>
</linearGradient>
</defs>
</svg>
