<svg width="90" height="75" viewBox="0 0 90 75" fill="none" xmlns="http://www.w3.org/2000/svg">
<path d="M75.3679 45H90L45 0L0 45H14.6321L7.31603 52.316H21.9481L14.6321 59.6321H29.2641L21.9481 66.9481H36.5801L29.2641 74.2641H60.7359L53.4199 66.9481H68.0519L60.7359 59.6321H75.3679L68.0519 52.316H82.684L75.3679 45ZM2.20767 44.0855L45 1.29316L87.7923 44.0855H74.4534L45 14.6321L15.5466 44.0855H2.20767ZM44.8107 58.7175H31.4718L37.8733 52.316H52.1267L58.5282 58.7175H45.1893M38.7878 51.4015L45 45.1893L51.2122 51.4015H38.7878ZM37.4946 51.4015H24.1558L30.5573 45H43.8962L37.4946 51.4015ZM46.1038 45H59.4427L65.8442 51.4015H52.5054L46.1038 45ZM44.8107 44.0855H31.4718L45 30.5573L58.5282 44.0855H45.1893M45 29.2641L30.1786 44.0855H16.8397L45 15.9252L73.1603 44.0855H59.8214L45 29.2641ZM9.5237 51.4015L15.9252 45H29.2641L22.8626 51.4015H9.5237ZM16.8397 58.7175L23.2412 52.316H36.5801L30.1786 58.7175H16.8397ZM24.1558 66.0336L30.5573 59.6321H43.8962L37.4946 66.0336H24.1558ZM45 59.8214L51.2122 66.0336H38.7878L45 59.8214ZM58.5282 73.3496H31.4718L37.8733 66.9481H52.1267L58.5282 73.3496ZM65.8442 66.0336H52.5054L46.1038 59.6321H59.4427L65.8442 66.0336ZM73.1603 58.7175H59.8214L53.4199 52.316H66.7588L73.1603 58.7175ZM60.7359 45H74.0748L80.4763 51.4015H67.1374L60.7359 45Z" fill="url(#paint0_linear_24_228)"/>
<defs>
<linearGradient id="paint0_linear_24_228" x1="45" y1="0" x2="45" y2="74.2641" gradientUnits="userSpaceOnUse">
<stop stop-color="white"/>
<stop offset="1" stop-color="#191E24"/>
</linearGradient>
</defs>
</svg>
