<svg width="205" height="341" viewBox="0 0 205 341" fill="none" xmlns="http://www.w3.org/2000/svg">
<path d="M10.4394 76.1807C18.7595 67.1405 18.1782 53.0684 9.13805 44.7483C0.0978778 36.4282 -13.9742 37.0095 -22.2943 46.0497C-30.6144 55.0898 -30.0331 69.162 -20.993 77.482C-11.9528 85.8021 2.11933 85.2209 10.4394 76.1807Z" fill="#EAA8E1"/>
<path d="M48.5783 13.932C51.6235 10.6265 51.4153 5.4731 48.1011 2.4279C44.7956 -0.617302 39.6422 -0.409095 36.597 2.90506C33.5518 6.21053 33.76 11.364 37.0742 14.4092C40.3797 17.4544 45.5331 17.2461 48.5783 13.932Z" fill="#EAA8E1"/>
<path d="M34.055 195.291C52.2568 175.519 50.9815 144.728 31.2094 126.526C11.4372 108.324 -19.3532 109.6 -37.555 129.372C-55.7568 149.144 -54.4814 179.934 -34.7093 198.136C-14.9372 216.338 15.8532 215.063 34.055 195.291Z" fill="#EAA8E1"/>
<path d="M69.8599 130.882C81.5983 118.128 80.7828 98.2779 68.0293 86.5396C55.2759 74.8012 35.4257 75.6254 23.6874 88.3702C11.949 101.124 12.7732 120.974 25.518 132.712C38.2714 144.45 58.1216 143.635 69.8599 130.882Z" fill="#EAA8E1"/>
<path d="M105.804 66.62C111.157 60.8073 110.784 51.7584 104.971 46.4141C99.1582 41.0612 90.1093 41.4342 84.765 47.247C79.412 53.0598 79.7851 62.1086 85.5979 67.4529C91.4107 72.8059 100.46 72.4328 105.804 66.62Z" fill="#EAA8E1"/>
<path d="M36.4929 294.889C53.8011 276.088 52.5952 246.807 33.7861 229.491C14.9856 212.182 -14.2952 213.388 -31.612 232.197C-48.9203 250.998 -47.7143 280.279 -28.9052 297.587C-10.1048 314.895 19.176 313.689 36.4929 294.88L36.4929 294.889Z" fill="#EAA8E1"/>
<path d="M78.8654 236.535C93.059 221.118 92.0613 197.121 76.6531 182.927C61.2362 168.734 37.239 169.732 23.0454 185.14C8.85177 200.557 9.84949 224.554 25.2577 238.748C40.6746 252.941 64.6718 251.943 78.8654 236.535Z" fill="#EAA8E1"/>
<path d="M118.904 176.039C128.786 165.307 128.092 148.589 117.36 138.707C106.628 128.825 89.9097 129.52 80.028 140.252C70.1463 150.983 70.8403 167.702 81.5723 177.583C92.3042 187.465 109.022 186.771 118.904 176.039Z" fill="#EAA8E1"/>
<path d="M156.609 113.382C160.99 108.619 160.687 101.21 155.924 96.8204C151.161 92.4391 143.752 92.7428 139.362 97.5058C134.98 102.269 135.284 109.678 140.047 114.068C144.81 118.449 152.219 118.145 156.609 113.382Z" fill="#EAA8E1"/>
<path d="M76.037 331.292C86.6648 319.754 85.9187 301.786 74.3799 291.158C62.8411 280.53 44.8736 281.276 34.2457 292.815C23.6179 304.354 24.364 322.322 35.9028 332.949C47.4416 343.577 65.4091 342.831 76.037 331.292Z" fill="#EAA8E1"/>
<path d="M118.262 272.809C125.689 264.741 125.177 252.169 117.1 244.743C109.031 237.316 96.4598 237.837 89.0334 245.905C81.6069 253.974 82.1187 266.545 90.1959 273.972C98.2644 281.398 110.836 280.877 118.262 272.809Z" fill="#EAA8E1"/>
<path d="M161.225 215.002C165.832 209.996 165.511 202.205 160.505 197.598C155.499 192.992 147.708 193.313 143.101 198.319C138.494 203.325 138.815 211.115 143.821 215.722C148.827 220.329 156.618 220.008 161.225 215.002Z" fill="#EAA8E1"/>
<path d="M203.458 156.519C204.873 154.983 204.768 152.597 203.242 151.183C201.706 149.769 199.32 149.873 197.906 151.4C196.492 152.935 196.596 155.321 198.123 156.735C199.658 158.15 202.044 158.045 203.458 156.519Z" fill="#EAA8E1"/>
<path d="M160.296 311.503C162.3 309.325 162.162 305.933 159.984 303.929C157.806 301.925 154.414 302.063 152.41 304.241C150.406 306.419 150.545 309.811 152.722 311.824C154.9 313.828 158.292 313.689 160.296 311.511L160.296 311.503Z" fill="#EAA8E1"/>
</svg>
