<svg width="202" height="341" viewBox="0 0 202 341" fill="none" xmlns="http://www.w3.org/2000/svg">
<path d="M194.017 75.9059C185.697 66.8657 186.278 52.7936 195.318 44.4735C204.358 36.1534 218.43 36.7347 226.75 45.7749C235.071 54.8151 234.489 68.8872 225.449 77.2073C216.409 85.5274 202.337 84.9461 194.017 75.9059Z" fill="#EAA8E1"/>
<path d="M155.878 13.6572C152.833 10.3517 153.041 5.19829 156.355 2.15309C159.66 -0.892113 164.814 -0.683906 167.859 2.63025C170.904 5.93572 170.696 11.0892 167.382 14.1344C164.076 17.1796 158.923 16.9713 155.878 13.6572Z" fill="#EAA8E1"/>
<path d="M170.401 195.016C152.199 175.244 153.474 144.453 173.246 126.252C193.019 108.05 223.809 109.325 242.011 129.097C260.213 148.869 258.937 179.66 239.165 197.862C219.393 216.063 188.603 214.788 170.401 195.016Z" fill="#EAA8E1"/>
<path d="M134.596 130.607C122.858 117.853 123.673 98.0032 136.427 86.2648C149.18 74.5265 169.03 75.3507 180.769 88.0954C192.507 100.849 191.683 120.699 178.938 132.437C166.185 144.176 146.335 143.36 134.596 130.607Z" fill="#EAA8E1"/>
<path d="M98.6521 66.3453C93.2991 60.5325 93.6722 51.4836 99.4849 46.1393C105.298 40.7864 114.347 41.1595 119.691 46.9722C125.044 52.785 124.671 61.8338 118.858 67.1781C113.045 72.5311 103.996 72.158 98.6521 66.3453Z" fill="#EAA8E1"/>
<path d="M167.963 294.614C150.655 275.813 151.861 246.533 170.67 229.216C189.47 211.908 218.751 213.114 236.068 231.923C253.376 250.723 252.17 280.004 233.361 297.312C214.561 314.62 185.28 313.414 167.963 294.605L167.963 294.614Z" fill="#EAA8E1"/>
<path d="M125.591 236.26C111.397 220.844 112.395 196.846 127.803 182.653C143.22 168.459 167.217 169.457 181.411 184.865C195.604 200.282 194.607 224.279 179.198 238.473C163.781 252.666 139.784 251.669 125.591 236.26Z" fill="#EAA8E1"/>
<path d="M85.552 175.764C75.6703 165.032 76.3644 148.314 87.0963 138.432C97.8283 128.551 114.547 129.245 124.428 139.977C134.31 150.709 133.616 167.427 122.884 177.309C112.152 187.19 95.4338 186.496 85.552 175.764Z" fill="#EAA8E1"/>
<path d="M47.8469 113.108C43.4657 108.345 43.7693 100.936 48.5323 96.5456C53.2953 92.1643 60.7044 92.468 65.0944 97.231C69.4757 101.994 69.172 109.403 64.409 113.793C59.646 118.174 52.2369 117.871 47.8469 113.108Z" fill="#EAA8E1"/>
<path d="M128.419 331.018C117.791 319.479 118.537 301.511 130.076 290.883C141.615 280.255 159.582 281.002 170.21 292.54C180.838 304.079 180.092 322.047 168.553 332.675C157.014 343.302 139.047 342.556 128.419 331.018Z" fill="#EAA8E1"/>
<path d="M86.1939 272.534C78.7674 264.466 79.2793 251.895 87.3564 244.468C95.4249 237.042 107.996 237.562 115.423 245.631C122.849 253.699 122.337 266.27 114.26 273.697C106.192 281.123 93.6203 280.603 86.1939 272.534Z" fill="#EAA8E1"/>
<path d="M43.2314 214.727C38.6245 209.721 38.9455 201.931 43.9515 197.324C48.9574 192.717 56.7483 193.038 61.3551 198.044C65.962 203.05 65.641 210.841 60.635 215.447C55.6291 220.054 47.8382 219.733 43.2314 214.727Z" fill="#EAA8E1"/>
<path d="M0.997745 156.244C-0.416409 154.708 -0.3123 152.322 1.21464 150.908C2.75025 149.494 5.1361 149.598 6.55025 151.125C7.96441 152.661 7.8603 155.046 6.33336 156.461C4.79774 157.875 2.4119 157.771 0.997745 156.244Z" fill="#EAA8E1"/>
<path d="M44.1597 311.228C42.1556 309.05 42.2944 305.658 44.472 303.654C46.6497 301.65 50.0419 301.789 52.046 303.966C54.0501 306.144 53.9113 309.536 51.7337 311.549C49.5561 313.553 46.1638 313.414 44.1597 311.237L44.1597 311.228Z" fill="#EAA8E1"/>
</svg>
