<svg width="105" height="148" viewBox="0 0 105 148" fill="none" xmlns="http://www.w3.org/2000/svg">
<g clip-path="url(#clip0_17_559)">
<path d="M52.5781 93.5C65.1681 81.91 84.7781 82.72 96.3781 95.31C107.968 107.9 107.158 127.51 94.5681 139.11C81.9781 150.7 62.3681 149.89 50.7681 137.3C39.1781 124.71 39.9881 105.1 52.5781 93.5Z" fill="#FF002C"/>
<path d="M6.68809 43.64C15.0581 35.94 28.0781 36.48 35.7881 44.84C43.4881 53.21 42.9481 66.23 34.5881 73.94C26.2181 81.64 13.1981 81.1 5.48809 72.74C-2.21191 64.37 -1.67191 51.35 6.68809 43.64Z" fill="#FF002C"/>
<path d="M74.1781 1.55002C76.5581 -0.639984 80.2581 -0.489984 82.4481 1.89002C84.6381 4.27002 84.4881 7.97002 82.1081 10.16C79.7281 12.35 76.0281 12.2 73.8381 9.82002C71.6481 7.44002 71.7981 3.74002 74.1781 1.55002Z" fill="#FF002C"/>
</g>
<defs>
<clipPath id="clip0_17_559">
<rect width="104.53" height="147.3" fill="white" transform="translate(0.0380859)"/>
</clipPath>
</defs>
</svg>
