<svg width="115" height="174" viewBox="0 0 115 174" fill="none" xmlns="http://www.w3.org/2000/svg">
<path d="M110.263 129.63C110.263 119.699 118.312 111.647 128.246 111.647C138.18 111.647 146.228 119.699 146.228 129.63C146.228 139.56 138.18 147.612 128.246 147.612C118.315 147.612 110.263 139.56 110.263 129.63Z" fill="#EAA8E1"/>
<path d="M108.534 98.4511C108.534 87.5644 117.359 78.7397 128.246 78.7397C139.132 78.7397 147.957 87.5644 147.957 98.4511C147.957 109.338 139.132 118.163 128.246 118.163C117.359 118.163 108.534 109.338 108.534 98.4511Z" fill="#EAA8E1"/>
<path d="M110.871 67.2767C110.871 57.6798 118.649 49.9019 128.246 49.9019C137.843 49.9019 145.621 57.6798 145.621 67.2767C145.621 76.8737 137.843 84.6516 128.246 84.6516C118.649 84.6516 110.871 76.8737 110.871 67.2767Z" fill="#EAA8E1"/>
<path d="M108.742 160.804C108.742 167.249 103.517 172.474 97.0711 172.474C90.6255 172.474 85.4003 167.249 85.4003 160.804C85.4003 154.358 90.6255 149.133 97.0711 149.133C103.517 149.133 108.742 154.358 108.742 160.804Z" fill="#EAA8E1"/>
<path d="M76.5836 129.629C76.5836 118.315 85.7571 109.142 97.0712 109.142C108.385 109.142 117.559 118.315 117.559 129.629C117.559 140.943 108.385 150.117 97.0712 150.117C85.7571 150.117 76.5836 140.943 76.5836 129.629Z" fill="#EAA8E1"/>
<path d="M75.0271 98.4512C75.0271 86.2786 84.8985 76.4072 97.0711 76.4072C109.244 76.4072 119.115 86.2747 119.115 98.4512C119.115 110.628 109.244 120.495 97.0711 120.495C84.8985 120.495 75.0271 110.624 75.0271 98.4512Z" fill="#EAA8E1"/>
<path d="M75.8035 67.2766C75.8035 55.5313 85.3259 46.0088 97.0712 46.0088C108.816 46.0088 118.339 55.5313 118.339 67.2766C118.339 79.0218 108.816 88.5443 97.0712 88.5443C85.3259 88.5443 75.8035 79.0218 75.8035 67.2766Z" fill="#EAA8E1"/>
<path d="M84.4478 36.1024C84.4478 29.1321 90.097 23.479 97.0673 23.479C104.038 23.479 109.691 29.1282 109.691 36.1024C109.691 43.0767 104.042 48.722 97.0673 48.722C90.097 48.722 84.4478 43.0728 84.4478 36.1024Z" fill="#EAA8E1"/>
<path d="M92.1433 4.92785C92.1433 2.20714 94.3505 -2.63197e-08 97.0712 -5.87638e-08C99.7919 -9.12079e-08 101.999 2.20714 101.999 4.92785C101.999 7.64855 99.7919 9.8557 97.0712 9.8557C94.3505 9.8557 92.1433 7.64855 92.1433 4.92785Z" fill="#EAA8E1"/>
<path d="M76.3563 160.804C76.3563 166.58 71.6734 171.263 65.8968 171.263C60.1203 171.263 55.4374 166.58 55.4374 160.804C55.4374 155.027 60.1203 150.344 65.8968 150.344C71.6734 150.344 76.3563 155.027 76.3563 160.804Z" fill="#EAA8E1"/>
<path d="M82.2367 129.629C82.2367 138.654 74.9211 145.969 65.8968 145.969C56.8725 145.969 49.5569 138.654 49.5569 129.629C49.5569 120.605 56.8725 113.29 65.8968 113.29C74.9211 113.29 82.2367 120.605 82.2367 129.629Z" fill="#EAA8E1"/>
<path d="M86.1257 98.451C86.1257 109.623 77.0689 118.68 65.8968 118.68C54.7247 118.68 45.6679 109.623 45.6679 98.451C45.6679 87.2789 54.7247 78.2222 65.8968 78.2222C77.0689 78.2222 86.1257 87.2789 86.1257 98.451Z" fill="#EAA8E1"/>
<path d="M83.4442 67.2769C83.4442 76.968 75.5879 84.8242 65.8968 84.8242C56.2056 84.8242 48.3494 76.968 48.3494 67.2769C48.3494 57.5857 56.2056 49.7295 65.8968 49.7295C75.5879 49.7295 83.4442 57.5857 83.4442 67.2769Z" fill="#EAA8E1"/>
<path d="M55.2609 36.1021C55.2609 30.2295 60.0202 25.4702 65.8928 25.4702C71.7655 25.4702 76.5247 30.2295 76.5247 36.1021C76.5247 41.9748 71.7655 46.7341 65.8928 46.7341C60.0202 46.7341 55.2609 41.9748 55.2609 36.1021Z" fill="#EAA8E1"/>
<path d="M62.3489 4.92776C62.3489 2.97152 63.9366 1.38379 65.8928 1.38379C67.8491 1.38379 69.4368 2.97152 69.4368 4.92776C69.4368 6.88401 67.8491 8.47174 65.8928 8.47174C63.9366 8.47174 62.3489 6.88401 62.3489 4.92776Z" fill="#EAA8E1"/>
<path d="M41.2889 160.804C41.2889 164.433 38.3472 167.374 34.7184 167.374C31.0897 167.374 28.148 164.433 28.148 160.804C28.148 157.175 31.0897 154.233 34.7184 154.233C38.3472 154.233 41.2889 157.175 41.2889 160.804Z" fill="#EAA8E1"/>
<path d="M44.1429 129.63C44.1429 134.835 39.9234 139.054 34.7184 139.054C29.5134 139.054 25.2939 134.835 25.2939 129.63C25.2939 124.425 29.5134 120.205 34.7184 120.205C39.9234 120.205 44.1429 124.425 44.1429 129.63Z" fill="#EAA8E1"/>
<path d="M23.569 98.4512C23.569 92.2923 28.5596 87.2979 34.7224 87.2979C40.8851 87.2979 45.8757 92.2884 45.8757 98.4512C45.8757 104.61 40.8851 109.604 34.7224 109.604C28.5596 109.604 23.569 104.614 23.569 98.4512Z" fill="#EAA8E1"/>
<path d="M24.7804 67.2769C24.7804 61.7845 29.2299 57.335 34.7223 57.335C40.2147 57.335 44.6642 61.7845 44.6642 67.2769C44.6642 72.7693 40.2147 77.2188 34.7223 77.2188C29.2299 77.2188 24.7804 72.7693 24.7804 67.2769Z" fill="#EAA8E1"/>
<path d="M29.1006 36.1022C29.1006 32.9973 31.6174 30.4844 34.7184 30.4844C37.8233 30.4844 40.3362 33.0012 40.3362 36.1022C40.3362 39.2032 37.8194 41.72 34.7184 41.72C31.6174 41.72 29.1006 39.2032 29.1006 36.1022Z" fill="#EAA8E1"/>
<path d="M5.8766 129.629C5.8766 130.918 4.83228 131.962 3.54402 131.962C2.25577 131.962 1.21143 130.918 1.21143 129.629C1.21143 128.341 2.25577 127.297 3.54402 127.297C4.83228 127.297 5.8766 128.341 5.8766 129.629Z" fill="#EAA8E1"/>
<path d="M4.22614e-08 98.4512C1.89334e-08 96.4949 1.58775 94.9072 3.54399 94.9072C5.50023 94.9072 7.08795 96.4949 7.08795 98.4512C7.08795 100.407 5.50023 101.995 3.54399 101.995C1.58775 101.995 6.55893e-08 100.407 4.22614e-08 98.4512Z" fill="#EAA8E1"/>
<path d="M6.31171 67.2765C6.31171 68.8051 5.07255 70.0443 3.54396 70.0443C2.01538 70.0443 0.776215 68.8051 0.776215 67.2765C0.776215 65.748 2.01538 64.5088 3.54396 64.5088C5.07255 64.5088 6.31171 65.748 6.31171 67.2765Z" fill="#EAA8E1"/>
</svg>
