<svg width="279" height="282" viewBox="0 0 279 282" fill="none" xmlns="http://www.w3.org/2000/svg">
<g clip-path="url(#clip0_22_42)">
<path d="M117.596 162.967C115.774 136.114 92.52 115.814 65.656 117.625C38.8034 119.447 18.5026 142.701 20.314 169.565C22.1362 196.418 45.3904 216.719 72.2544 214.907C99.107 213.085 119.408 189.831 117.596 162.967Z" fill="#FF002C"/>
<path d="M201.137 143.593C199.92 125.747 184.478 112.27 166.631 113.465C148.785 114.682 135.309 130.124 136.504 147.971C137.721 165.817 153.163 179.293 171.009 178.098C188.855 176.881 202.331 161.439 201.137 143.593Z" fill="#FF002C"/>
<path d="M151.238 96.3944C150.892 91.3193 146.508 87.4857 141.433 87.8312C136.358 88.1767 132.524 92.5613 132.87 97.6364C133.215 102.711 137.6 106.545 142.675 106.2C147.75 105.854 151.583 101.469 151.238 96.3944Z" fill="#FF002C"/>
</g>
<defs>
<clipPath id="clip0_22_42">
<rect width="164.404" height="231.672" fill="white" transform="matrix(-0.725542 -0.688178 -0.688178 0.725542 278.752 113.139)"/>
</clipPath>
</defs>
</svg>
