<svg width="105" height="148" viewBox="0 0 105 148" fill="none" xmlns="http://www.w3.org/2000/svg">
<g clip-path="url(#clip0_53_479)">
<path d="M52.5782 93.5C65.1682 81.91 84.7782 82.72 96.3782 95.31C107.968 107.9 107.158 127.51 94.5682 139.11C81.9782 150.7 62.3682 149.89 50.7682 137.3C39.1782 124.71 39.9882 105.1 52.5782 93.5Z" fill="#EAA8E1"/>
<path d="M6.68802 43.64C15.058 35.94 28.078 36.48 35.788 44.84C43.488 53.21 42.948 66.23 34.588 73.94C26.218 81.64 13.198 81.1 5.48802 72.74C-2.21198 64.37 -1.67198 51.35 6.68802 43.64Z" fill="#EAA8E1"/>
<path d="M74.178 1.54999C76.558 -0.640014 80.258 -0.490014 82.448 1.88999C84.638 4.26999 84.488 7.96999 82.108 10.16C79.728 12.35 76.028 12.2 73.838 9.81999C71.648 7.43999 71.798 3.73999 74.178 1.54999Z" fill="#EAA8E1"/>
</g>
<defs>
<clipPath id="clip0_53_479">
<rect width="104.53" height="147.3" fill="white" transform="translate(0.0380859)"/>
</clipPath>
</defs>
</svg>
