<svg width="306" height="385" viewBox="0 0 306 385" fill="none" xmlns="http://www.w3.org/2000/svg">
<path d="M254.768 355.864C254.768 339.805 267.79 326.782 283.849 326.782C299.908 326.782 312.93 339.805 312.93 355.864C312.93 371.922 299.908 384.945 283.849 384.945C267.79 384.945 254.768 371.922 254.768 355.864Z" fill="#EAA8E1"/>
<path d="M244.053 286.874C244.053 264.898 261.865 247.078 283.849 247.078C305.834 247.078 323.645 264.898 323.645 286.874C323.645 308.849 305.834 326.669 283.849 326.669C261.873 326.669 244.053 308.849 244.053 286.874Z" fill="#EAA8E1"/>
<path d="M240.227 217.875C240.227 193.782 259.757 174.253 283.849 174.253C307.942 174.253 327.471 193.782 327.471 217.875C327.471 241.968 307.942 261.497 283.849 261.497C259.757 261.497 240.227 241.968 240.227 217.875Z" fill="#EAA8E1"/>
<path d="M245.398 148.885C245.398 127.647 262.611 110.434 283.849 110.434C305.087 110.434 322.3 127.647 322.3 148.885C322.3 170.123 305.087 187.336 283.849 187.336C262.611 187.336 245.398 170.123 245.398 148.885Z" fill="#EAA8E1"/>
<path d="M260.511 79.8953C260.511 67.0031 270.957 56.5574 283.849 56.5574C296.741 56.5574 307.187 67.0031 307.187 79.8953C307.187 92.7875 296.741 103.233 283.849 103.233C270.957 103.233 260.511 92.7789 260.511 79.8953Z" fill="#EAA8E1"/>
<path d="M276.006 10.9053C276.006 6.57607 279.52 3.06238 283.849 3.06238C288.178 3.06238 291.692 6.57607 291.692 10.9053C291.692 15.2345 288.178 18.7482 283.849 18.7482C279.52 18.7482 276.006 15.2345 276.006 10.9053Z" fill="#EAA8E1"/>
<path d="M240.687 355.864C240.687 370.128 229.124 381.691 214.859 381.691C200.595 381.691 189.031 370.128 189.031 355.864C189.031 341.599 200.595 330.036 214.859 330.036C229.124 330.036 240.687 341.599 240.687 355.864Z" fill="#EAA8E1"/>
<path d="M169.52 286.874C169.52 261.835 189.821 241.534 214.859 241.534C239.898 241.534 260.199 261.835 260.199 286.874C260.199 311.912 239.898 332.213 214.859 332.213C189.821 332.213 169.52 311.912 169.52 286.874Z" fill="#EAA8E1"/>
<path d="M166.075 217.875C166.075 190.937 187.921 169.091 214.859 169.091C241.797 169.091 263.643 190.928 263.643 217.875C263.643 244.822 241.797 266.659 214.859 266.659C187.921 266.659 166.075 244.813 166.075 217.875Z" fill="#EAA8E1"/>
<path d="M167.793 148.885C167.793 122.892 188.867 101.819 214.859 101.819C240.852 101.819 261.925 122.892 261.925 148.885C261.925 174.878 240.852 195.951 214.859 195.951C188.867 195.951 167.793 174.878 167.793 148.885Z" fill="#EAA8E1"/>
<path d="M186.923 79.8953C186.923 64.4697 199.425 51.9592 214.851 51.9592C230.276 51.9592 242.787 64.461 242.787 79.8953C242.787 95.3295 230.285 107.823 214.851 107.823C199.425 107.823 186.923 95.3208 186.923 79.8953Z" fill="#EAA8E1"/>
<path d="M203.954 10.9055C203.954 4.88447 208.838 -5.82462e-08 214.859 -1.30046e-07C220.88 -2.01846e-07 225.765 4.88447 225.765 10.9055C225.765 16.9265 220.88 21.8109 214.859 21.8109C208.838 21.8109 203.954 16.9265 203.954 10.9055Z" fill="#EAA8E1"/>
<path d="M169.017 355.863C169.017 368.647 158.653 379.01 145.87 379.01C133.086 379.01 122.723 368.647 122.723 355.863C122.723 343.08 133.086 332.716 145.87 332.716C158.653 332.716 169.017 343.08 169.017 355.863Z" fill="#EAA8E1"/>
<path d="M182.03 286.874C182.03 306.845 165.841 323.034 145.87 323.034C125.899 323.034 109.709 306.845 109.709 286.874C109.709 266.903 125.899 250.713 145.87 250.713C165.841 250.713 182.03 266.903 182.03 286.874Z" fill="#EAA8E1"/>
<path d="M190.637 217.875C190.637 242.599 170.594 262.642 145.869 262.642C121.145 262.642 101.102 242.599 101.102 217.875C101.102 193.151 121.145 173.108 145.869 173.108C170.594 173.108 190.637 193.151 190.637 217.875Z" fill="#EAA8E1"/>
<path d="M184.702 148.885C184.702 170.332 167.316 187.718 145.869 187.718C124.423 187.718 107.037 170.332 107.037 148.885C107.037 127.438 124.423 110.052 145.869 110.052C167.316 110.052 184.702 127.438 184.702 148.885Z" fill="#EAA8E1"/>
<path d="M122.332 79.8953C122.332 66.899 132.864 56.3666 145.861 56.3666C158.857 56.3666 169.389 66.899 169.389 79.8953C169.389 92.8917 158.857 103.424 145.861 103.424C132.864 103.424 122.332 92.8917 122.332 79.8953Z" fill="#EAA8E1"/>
<path d="M138.018 10.9053C138.018 6.57607 141.531 3.06238 145.861 3.06238C150.19 3.06238 153.704 6.57607 153.704 10.9053C153.704 15.2345 150.19 18.7482 145.861 18.7482C141.531 18.7482 138.018 15.2345 138.018 10.9053Z" fill="#EAA8E1"/>
<path d="M91.4114 355.864C91.4114 363.894 84.9013 370.404 76.8708 370.404C68.8402 370.404 62.3302 363.894 62.3302 355.864C62.3302 347.833 68.8402 341.323 76.8708 341.323C84.9013 341.323 91.4114 347.833 91.4114 355.864Z" fill="#EAA8E1"/>
<path d="M97.7275 286.874C97.7275 298.392 88.3897 307.73 76.8709 307.73C65.3521 307.73 56.0143 298.392 56.0143 286.874C56.0143 275.355 65.3521 266.017 76.8709 266.017C88.3897 266.017 97.7275 275.355 97.7275 286.874Z" fill="#EAA8E1"/>
<path d="M52.197 217.875C52.197 204.245 63.2413 193.193 76.8797 193.193C90.518 193.193 101.562 204.237 101.562 217.875C101.562 231.505 90.518 242.558 76.8797 242.558C63.2413 242.558 52.197 231.513 52.197 217.875Z" fill="#EAA8E1"/>
<path d="M54.8777 148.885C54.8777 136.731 64.7247 126.883 76.8795 126.883C89.0343 126.883 98.8813 136.731 98.8813 148.885C98.8813 161.04 89.0343 170.887 76.8795 170.887C64.7247 170.887 54.8777 161.04 54.8777 148.885Z" fill="#EAA8E1"/>
<path d="M64.4384 79.8954C64.4384 73.0241 70.0082 67.463 76.8707 67.463C83.742 67.463 89.3032 73.0328 89.3032 79.8954C89.3032 86.7579 83.7333 92.3278 76.8707 92.3278C70.0082 92.3278 64.4384 86.7579 64.4384 79.8954Z" fill="#EAA8E1"/>
<path d="M13.043 286.874C13.043 289.725 10.7319 292.036 7.88098 292.036C5.03003 292.036 2.71887 289.725 2.71887 286.874C2.71887 284.023 5.03003 281.712 7.88098 281.712C10.7319 281.712 13.043 284.023 13.043 286.874Z" fill="#EAA8E1"/>
<path d="M0.037964 217.875C0.0379639 213.546 3.55169 210.032 7.88091 210.032C12.2101 210.032 15.7238 213.546 15.7238 217.875C15.7238 222.204 12.2101 225.718 7.88091 225.718C3.55169 225.718 0.037964 222.204 0.037964 217.875Z" fill="#EAA8E1"/>
<path d="M14.006 148.885C14.006 152.268 11.2636 155.01 7.88084 155.01C4.49804 155.01 1.75574 152.268 1.75574 148.885C1.75574 145.502 4.49804 142.76 7.88084 142.76C11.2636 142.76 14.006 145.502 14.006 148.885Z" fill="#EAA8E1"/>
</svg>
