<svg width="1920" height="637" viewBox="0 0 1920 637" fill="none" xmlns="http://www.w3.org/2000/svg">
<path d="M960.038 0.5C1259.87 0.5 1531.3 56.9584 1727.75 148.218C1924.23 239.496 2045.54 365.497 2045.54 504.5C2045.54 539.258 2037.96 565.718 2023.57 585.448C2009.19 605.175 1987.96 618.229 1960.56 626.097C1905.72 641.843 1826.3 636.781 1728.03 622.99C1531.55 595.419 1259.98 533 960.038 533C660.101 533 388.524 595.419 192.051 622.99C93.777 636.781 14.358 641.843 -40.4805 626.097C-67.8815 618.229 -89.1098 605.175 -103.494 585.448C-117.88 565.718 -125.462 539.258 -125.462 504.5C-125.462 365.497 -4.15792 239.496 192.331 148.218C388.779 56.9584 660.204 0.5 960.038 0.5Z" stroke="#F5F5F5" stroke-opacity="0.5"/>
</svg>
