<svg width="84" height="90" viewBox="0 0 84 90" fill="none" xmlns="http://www.w3.org/2000/svg">
<path d="M83.9329 65.985L83.957 65.9712L77.7286 18.6549C77.7978 18.5701 77.8179 18.4533 77.749 18.3614C77.7331 18.3397 77.7058 18.3376 77.6849 18.323L77.6735 18.2367L77.6563 18.1091L42.1899 0.0602155L42.0724 0L41.9355 0.0781965C41.9008 0.0593195 41.8695 0.033453 41.8272 0.033453C41.8267 0.033453 41.8277 0.033453 41.8272 0.033453C41.6925 0.0339308 41.5821 0.143848 41.5825 0.279093L0.142414 23.9471L0 24.0288L6.16108 71.5244L6.17781 71.6525L42.0179 89.9398L42.1355 90L42.1937 89.9668L83.957 66.1681L83.9329 65.985ZM17.1318 63.8086L28.1904 55.5732L37.9048 54.8427L41.7871 60.8532L41.8367 75.5494L26.8308 73.7271L17.1318 63.8086ZM26.0546 73.6329L7.04024 71.3238L16.7361 64.1032L26.0546 73.6329ZM16.581 54.5144L33.6705 48.2874L34.802 50.039L28.0108 55.0966L15.7024 56.0222L16.581 54.5144ZM15.1113 56.0666L11.5956 56.3309L15.8636 54.7758L15.1113 56.0666ZM41.63 14.3415L41.6775 28.3859L34.8909 17.8792L36.6356 13.7593L41.63 14.3415ZM36.8346 13.2894L41.5886 2.06351L41.6284 13.8482L36.8346 13.2894ZM42.3263 75.6089L42.279 61.6148L49.1452 72.2448L47.4828 76.2351L42.3263 75.6089ZM47.2874 76.7041L42.3698 88.5081L42.3279 76.1018L47.2874 76.7041ZM49.4667 72.7426L52.0835 76.7938L47.9866 76.2963L49.4667 72.7426ZM49.6952 72.1943L50.2535 70.8539L51.7414 75.3622L49.6952 72.1943ZM49.3736 71.6964L42.276 60.708L42.2551 54.5156L44.7981 54.3244L50.0197 70.1455L49.3736 71.6964ZM72.3601 33.6701L67.9217 35.2872L68.6936 33.9457L72.3601 33.6701ZM68.9889 33.4324L70.8187 30.2519L73.5702 33.0879L68.9889 33.4324ZM73.6218 33.7314L63.042 55.2498L57.9114 52.6865L67.5425 35.9463L73.6218 33.7314ZM57.4747 52.4684L57.1176 52.29L50.5579 42.1345L66.8299 36.2059L57.4747 52.4684ZM42.4008 45.5001L56.5072 52.9539L45.1428 53.8084L42.4008 45.5001ZM44.6403 53.8462L42.2534 54.0257L42.2281 46.5373L44.6403 53.8462ZM56.2574 51.8603L42.5962 45.0352L50.0863 42.3063L56.2574 51.8603ZM43.4655 44.1978L48.7609 40.2543L49.814 41.8847L43.4655 44.1978ZM41.5557 44.4999L27.4499 37.0465L38.8137 36.1922L41.5557 44.4999ZM39.3162 36.1544L41.7031 35.9749L41.7284 43.4628L39.3162 36.1544ZM26.9663 36.592L33.6986 20.6945L38.6556 35.7131L26.9663 36.592ZM41.3603 44.9648L33.8698 47.6939L27.6984 38.1395L41.3603 44.9648ZM40.491 45.8022L35.1953 49.7461L34.1422 48.1156L40.491 45.8022ZM41.7352 45.4863L41.7641 54.0625L38.1586 54.3336L35.4616 50.1583L41.7352 45.4863ZM41.7658 54.5524L41.784 59.9464L38.4604 54.8009L41.7658 54.5524ZM45.3007 54.2865L56.9929 53.4073L50.3071 69.4557L45.3007 54.2865ZM63.4803 55.4687L74.0522 33.9662L83.233 65.337L63.4803 55.4687ZM73.9696 32.7961L71.0727 29.8104L76.8478 19.7726L73.9696 32.7961ZM70.7188 29.4456L67.5966 26.2275L76.2975 19.748L70.7188 29.4456ZM70.4648 29.8871L68.3999 33.4767L56.6787 34.358L67.2004 26.5225L70.4648 29.8871ZM68.1047 33.99L67.209 35.5468L50.2856 41.7129L49.1543 39.9614L55.9453 34.9042L68.1047 33.99ZM48.888 39.5491L46.3535 35.6253L55.0332 34.9727L48.888 39.5491ZM48.4946 39.842L42.2213 44.5137L42.1923 35.9381L45.7979 35.6671L48.4946 39.842ZM42.1907 35.4473L42.1724 30.0543L45.4954 35.1988L42.1907 35.4473ZM41.7014 35.4841L39.1581 35.6753L33.9881 20.011L34.6602 18.424L41.6805 29.2927L41.7014 35.4841ZM33.7559 19.3077L32.2146 14.6379L34.34 17.9283L33.7559 19.3077ZM34.5707 17.3834L31.8709 13.2038L36.1302 13.7003L34.5707 17.3834ZM33.4665 19.9911L26.4614 36.5348L21.2688 34.0281L31.3391 13.5454L33.4665 19.9911ZM26.8381 37.7096L33.3982 47.8657L16.9668 53.8524L26.4785 37.53L26.8381 37.7096ZM35.0682 50.4512L37.6029 54.3753L28.9224 55.0281L35.0682 50.4512ZM41.8384 76.0424L41.8825 89.1196L27.3775 74.2863L41.8384 76.0424ZM47.7912 76.7653L52.0984 77.2884L42.9848 88.3044L47.7912 76.7653ZM50.5408 70.1641L57.4965 53.4653L62.6873 55.9713L52.6168 76.454L50.5408 70.1641ZM74.3629 33.2837L77.3693 19.6804L83.0393 62.9306L74.3629 33.2837ZM76.912 18.6797L67.2526 25.873L57.9055 16.239L77.0333 18.4689L76.912 18.6797ZM66.8565 26.168L55.7666 34.4265L46.0511 35.1571L42.1694 29.1476L42.1196 14.3986L57.1363 16.1493L66.8565 26.168ZM42.1179 13.9053L42.0741 0.917089L42.1604 0.713325L56.5969 15.5933L42.1179 13.9053ZM36.3292 13.2304L31.8655 12.71L41.2278 1.66148L36.3292 13.2304ZM20.8284 33.8155L0.893374 24.1919L30.8968 13.3365L20.8284 33.8155ZM26.0418 37.3118L16.2494 54.1138L10.3343 56.2689L20.914 34.7499L26.0418 37.3118ZM14.8126 56.5792L13.0387 59.6229L10.3877 56.9119L14.8126 56.5792ZM15.4037 56.5348L27.2788 55.6418L16.7866 63.4557L13.393 59.9851L15.4037 56.5348ZM16.391 63.7503L7.21784 70.5818L13.1377 60.4232L16.391 63.7503ZM26.6014 74.192L40.9097 88.8246L7.74466 71.9021L26.6014 74.192ZM52.7176 77.3079L80.3204 67.4956L43.1787 88.8369L52.7176 77.3079ZM53.0577 76.6675L63.1285 56.1843L83.1687 65.8591L82.6899 66.1342L53.0577 76.6675ZM57.366 15.6829L43.279 1.16351L76.1027 17.8672L57.366 15.6829ZM31.2394 12.6925L2.85127 22.9636L40.9944 1.17958L31.2394 12.6925ZM20.4765 34.5314L9.90352 56.0367L0.657231 24.6299L20.4765 34.5314ZM9.98351 57.1975L12.7834 60.0609L7.01079 69.9657L9.98351 57.1975ZM0.905919 27.207L9.59324 56.7142L6.47238 70.1188L0.905919 27.207Z" fill="url(#paint0_linear_24_220)"/>
<defs>
<linearGradient id="paint0_linear_24_220" x1="41.9785" y1="0" x2="41.9785" y2="90" gradientUnits="userSpaceOnUse">
<stop stop-color="white"/>
<stop offset="1" stop-color="#191E24"/>
</linearGradient>
</defs>
</svg>
