<svg width="19" height="19" viewBox="0 0 19 19" fill="none" xmlns="http://www.w3.org/2000/svg">
<path d="M9.04434 2.11681C11.4535 2.11681 11.7327 2.12478 12.6819 2.17257C13.5594 2.21239 14.0381 2.35575 14.3572 2.48319C14.7799 2.64248 15.0751 2.84159 15.3942 3.15221C15.7133 3.4708 15.9047 3.76549 16.0643 4.18761C16.1839 4.5062 16.3355 4.98407 16.3754 5.86018C16.4153 6.80796 16.4312 7.09469 16.4312 9.49204C16.4312 11.8894 16.4233 12.1761 16.3754 13.1239C16.3355 14 16.1919 14.4779 16.0643 14.7965C15.9047 15.2186 15.7053 15.5133 15.3942 15.8319C15.0831 16.1504 14.7799 16.3416 14.3572 16.5009C14.0381 16.6204 13.5594 16.7717 12.6819 16.8115C11.7327 16.8513 11.4455 16.8673 9.04434 16.8673C6.64321 16.8673 6.35603 16.8593 5.40674 16.8115C4.52925 16.7717 4.05062 16.6283 3.73153 16.5009C3.30874 16.3416 3.01358 16.1425 2.69449 15.8319C2.37541 15.5133 2.18395 15.2186 2.02441 14.7965C1.90475 14.4779 1.75318 14 1.7133 13.1239C1.67341 12.1761 1.65746 11.8894 1.65746 9.49204C1.65746 7.09469 1.66543 6.80796 1.7133 5.86018C1.75318 4.98407 1.89677 4.5062 2.02441 4.18761C2.18395 3.76549 2.38338 3.4708 2.69449 3.15221C3.01358 2.83363 3.30874 2.64248 3.73153 2.48319C4.05062 2.36372 4.52925 2.21239 5.40674 2.17257C6.35603 2.13274 6.64321 2.11681 9.04434 2.11681ZM9.04434 0.5C6.59534 0.5 6.29221 0.507964 5.32697 0.555752C4.36971 0.595575 3.71557 0.754868 3.14122 0.977876C2.5509 1.20885 2.04834 1.5115 1.54578 2.01327C1.04321 2.51504 0.74008 3.01681 0.508741 3.60619C0.285379 4.17965 0.133812 4.83274 0.0939261 5.7885C0.0460629 6.74425 0.0380859 7.05487 0.0380859 9.5C0.0380859 11.9451 0.0460629 12.2478 0.0939261 13.2115C0.133812 14.1673 0.293356 14.8204 0.508741 15.3938C0.74008 15.9832 1.04321 16.485 1.54578 16.9867C2.04834 17.4885 2.5509 17.7912 3.14122 18.0221C3.71557 18.2451 4.36971 18.3965 5.32697 18.4442C6.28423 18.4841 6.59534 18.5 9.04434 18.5C11.4933 18.5 11.7965 18.492 12.7617 18.4442C13.719 18.4044 14.3731 18.2451 14.9475 18.0221C15.5378 17.7912 16.0403 17.4885 16.5429 16.9867C17.0455 16.485 17.3486 15.9832 17.5799 15.3938C17.8033 14.8204 17.9549 14.1673 17.9948 13.2115C18.0346 12.2558 18.0506 11.9451 18.0506 9.5C18.0506 7.05487 18.0426 6.75221 17.9948 5.7885C17.9549 4.83274 17.7953 4.17965 17.5799 3.60619C17.3486 3.01681 17.0455 2.51504 16.5429 2.01327C16.0403 1.5115 15.5378 1.20885 14.9475 0.977876C14.3731 0.754868 13.719 0.60354 12.7617 0.555752C11.8045 0.515929 11.4933 0.5 9.04434 0.5Z" fill="white"/>
<path d="M9.04438 4.87201C6.49168 4.87201 4.4176 6.94281 4.4176 9.49148C4.4176 12.0402 6.49168 14.1109 9.04438 14.1109C11.5971 14.1109 13.6712 12.0402 13.6712 9.49148C13.6712 6.94281 11.5971 4.87201 9.04438 4.87201ZM9.04438 12.4862C7.38512 12.4862 6.04495 11.1402 6.04495 9.49148C6.04495 7.84281 7.3931 6.49679 9.04438 6.49679C10.6957 6.49679 12.0438 7.84281 12.0438 9.49148C12.0438 11.1402 10.6957 12.4862 9.04438 12.4862Z" fill="white"/>
<path d="M14.9315 4.68901C14.9315 5.28636 14.4449 5.7722 13.8466 5.7722C13.2483 5.7722 12.7617 5.28636 12.7617 4.68901C12.7617 4.09167 13.2483 3.60583 13.8466 3.60583C14.4449 3.60583 14.9315 4.09167 14.9315 4.68901Z" fill="white"/>
</svg>
