<svg width="19" height="19" viewBox="0 0 19 19" fill="none" xmlns="http://www.w3.org/2000/svg">
<path d="M4.24991 6.28357H0.628368C0.467639 6.28357 0.337402 6.41387 0.337402 6.57454V18.209C0.337402 18.3697 0.467639 18.5 0.628368 18.5H4.24991C4.41064 18.5 4.54087 18.3697 4.54087 18.209V6.57454C4.54087 6.41387 4.41064 6.28357 4.24991 6.28357Z" fill="white"/>
<path d="M2.44042 0.5C1.12269 0.5 0.0506592 1.57087 0.0506592 2.88714C0.0506592 4.204 1.12269 5.27528 2.44042 5.27528C3.7571 5.27528 4.82826 4.20394 4.82826 2.88714C4.82832 1.57087 3.7571 0.5 2.44042 0.5Z" fill="white"/>
<path d="M13.4615 5.9944C12.007 5.9944 10.9317 6.61968 10.2796 7.33016V6.57452C10.2796 6.41385 10.1493 6.28356 9.98859 6.28356H6.52034C6.35961 6.28356 6.22937 6.41385 6.22937 6.57452V18.209C6.22937 18.3697 6.35961 18.4999 6.52034 18.4999H10.134C10.2947 18.4999 10.4249 18.3697 10.4249 18.209V12.4526C10.4249 10.5129 10.9518 9.75717 12.304 9.75717C13.7766 9.75717 13.8937 10.9686 13.8937 12.5524V18.209C13.8937 18.3698 14.0239 18.5 14.1846 18.5H17.7996C17.9603 18.5 18.0905 18.3698 18.0905 18.209V11.8273C18.0905 8.94299 17.5406 5.9944 13.4615 5.9944Z" fill="white"/>
</svg>
