<svg width="178" height="26" viewBox="0 0 178 26" fill="none" xmlns="http://www.w3.org/2000/svg">
<path d="M78.6328 11.1572C77.4128 10.4685 76.055 10.1143 74.5202 10.1143C72.9853 10.1143 71.6275 10.4685 70.4075 11.1769C69.1874 11.8853 68.2232 12.8495 67.5148 14.0498C66.8064 15.2502 66.4522 16.5686 66.4522 18.0248C66.4522 19.4809 66.7867 20.819 67.4361 22.0194C68.0855 23.2197 68.9907 24.1839 70.132 24.912C71.2733 25.6401 72.572 25.9943 74.0479 25.9943C75.5237 25.9943 76.5273 25.6991 77.5309 25.0891C78.4164 24.5578 79.1248 23.8494 79.6758 22.9639V25.6204H82.5881V18.0248C82.5881 16.5292 82.2339 15.1715 81.5255 13.9711C80.8171 12.7708 79.8529 11.8262 78.6328 11.1375V11.1572ZM78.8887 20.5829C78.4557 21.3503 77.8654 21.9603 77.098 22.4129C76.3305 22.8655 75.4844 23.1017 74.5398 23.1017C73.5953 23.1017 72.7491 22.8655 71.9817 22.4129C71.2339 21.9603 70.6239 21.3503 70.191 20.5829C69.7384 19.8155 69.522 18.9693 69.522 18.0641C69.522 17.1589 69.7384 16.2931 70.191 15.5257C70.6239 14.7582 71.2339 14.1482 71.9817 13.6956C72.7295 13.2234 73.5756 13.0069 74.5398 13.0069C75.5041 13.0069 76.3502 13.243 77.098 13.6956C77.8654 14.1679 78.4557 14.7779 78.8887 15.5257C79.3216 16.2931 79.538 17.1393 79.538 18.0641C79.538 18.989 79.3216 19.8155 78.8887 20.5829Z" fill="white"/>
<path d="M89.3967 3.56152H86.3466V25.6401H89.3967V3.56152Z" fill="white"/>
<path d="M96.3036 3.56152H93.2535V25.6401H96.3036V3.56152Z" fill="white"/>
<path d="M110.983 11.3737C109.921 10.744 108.701 10.4292 107.323 10.4292C105.946 10.4292 104.647 10.7834 103.565 11.4721C102.482 12.1805 101.617 13.1054 101.007 14.2664C100.397 15.4274 100.101 16.7261 100.101 18.1429C100.101 19.5597 100.416 20.9175 101.066 22.0982C101.715 23.2789 102.62 24.2037 103.762 24.8925C104.923 25.5812 106.202 25.9354 107.618 25.9354C109.035 25.9354 110.098 25.6402 111.18 25.0499C112.262 24.4595 113.148 23.574 113.856 22.413L112.99 21.8817C112.38 22.905 111.593 23.6724 110.649 24.1447C109.704 24.617 108.681 24.8531 107.579 24.8531C106.477 24.8531 105.1 24.5186 104.076 23.8298C103.053 23.1411 102.286 22.2359 101.774 21.1143C101.4 20.3075 101.203 19.422 101.164 18.4971H114.309V17.6903C114.309 16.2539 114.014 14.9945 113.423 13.9319C112.833 12.8693 112.007 12.0034 110.944 11.3934L110.983 11.3737ZM101.243 17.5723C101.321 16.431 101.617 15.4077 102.148 14.5025C102.66 13.5777 103.368 12.8496 104.253 12.3183C105.139 11.7673 106.162 11.4918 107.304 11.4918C108.445 11.4918 109.488 11.7476 110.373 12.2592C111.278 12.7709 111.967 13.4793 112.498 14.3845C113.01 15.2896 113.286 16.3522 113.305 17.5723H101.262H101.243Z" fill="white"/>
<path d="M124.167 24.1643C124.089 24.4201 123.951 24.5972 123.774 24.7153C123.597 24.8334 123.4 24.8924 123.203 24.8924C123.006 24.8924 122.829 24.8334 122.652 24.7153C122.475 24.5972 122.318 24.4005 122.219 24.1643L117.182 10.7637H116.041L121.235 24.4792C121.413 24.9711 121.688 25.345 122.062 25.5811C122.416 25.8173 122.81 25.9353 123.223 25.9353C123.636 25.9353 124.03 25.8173 124.404 25.5811C124.778 25.345 125.033 24.9711 125.21 24.4792L130.405 10.7637H129.264L124.207 24.1643H124.167Z" fill="white"/>
<path d="M143.039 11.3737C141.976 10.744 140.756 10.4292 139.378 10.4292C138.001 10.4292 136.702 10.7834 135.62 11.4721C134.538 12.1805 133.672 13.1054 133.082 14.2664C132.472 15.4274 132.176 16.7261 132.176 18.1429C132.176 19.5597 132.491 20.9175 133.141 22.0982C133.79 23.2789 134.695 24.2037 135.836 24.8925C136.997 25.5812 138.277 25.9354 139.693 25.9354C141.11 25.9354 142.173 25.6402 143.255 25.0499C144.337 24.4595 145.223 23.574 145.931 22.413L145.065 21.8817C144.455 22.905 143.668 23.6724 142.724 24.1447C141.779 24.617 140.756 24.8531 139.654 24.8531C138.552 24.8531 137.175 24.5186 136.151 23.8298C135.128 23.1411 134.361 22.2359 133.849 21.1143C133.475 20.3075 133.278 19.422 133.239 18.4971H146.384V17.6903C146.384 16.2539 146.089 14.9945 145.498 13.9319C144.908 12.8693 144.082 12.0034 143.019 11.3934L143.039 11.3737ZM133.298 17.5723C133.377 16.431 133.672 15.4077 134.203 14.5025C134.715 13.5777 135.423 12.8496 136.309 12.3183C137.194 11.7673 138.218 11.4918 139.359 11.4918C140.5 11.4918 141.543 11.7476 142.429 12.2592C143.334 12.7709 144.022 13.4793 144.554 14.3845C145.065 15.2896 145.341 16.3522 145.361 17.5723H133.318H133.298Z" fill="white"/>
<path d="M160.847 11.4525C159.804 10.8031 158.545 10.4883 157.089 10.4883C155.632 10.4883 154.471 10.8031 153.448 11.4525C152.425 12.1019 151.618 12.9874 151.067 14.1287C150.516 15.27 150.241 16.5294 150.241 17.9659V25.6599H151.323V18.0052C151.323 16.8442 151.539 15.7816 151.992 14.8174C152.425 13.8335 153.094 13.0464 153.96 12.4364C154.826 11.8264 155.869 11.5312 157.108 11.5312C158.348 11.5312 159.47 11.8264 160.335 12.4364C161.201 13.0464 161.89 13.8335 162.362 14.8371C162.835 15.821 163.071 16.9033 163.071 18.0839V25.6796H164.153V17.9659C164.153 16.5491 163.877 15.27 163.307 14.1484C162.736 13.0267 161.929 12.1412 160.886 11.4919L160.847 11.4525Z" fill="white"/>
<path d="M177.101 11.7672V10.744H170.745V6.76904H169.663V10.744H166.357V11.7672H169.663V21.0945C169.663 22.0784 169.86 22.9443 170.233 23.6527C170.607 24.3808 171.139 24.9317 171.808 25.3253C172.477 25.7188 173.264 25.9156 174.169 25.9156C175.074 25.9156 175.251 25.8369 175.763 25.6598C176.275 25.4827 176.707 25.2466 177.101 24.9317V23.7904C176.727 24.1249 176.294 24.4004 175.822 24.6169C175.33 24.8333 174.799 24.9317 174.228 24.9317C173.185 24.9317 172.339 24.5775 171.69 23.8888C171.06 23.2001 170.725 22.2752 170.725 21.0945V11.7672H177.081H177.101Z" fill="white"/>
<path d="M21.8818 12.9873C21.8818 10.3701 22.5705 8.04811 23.948 5.98194C23.4561 5.23418 22.8657 4.52577 22.1967 3.85672C19.6582 1.29859 16.5885 0.0195312 12.9874 0.0195312C9.38635 0.0195312 6.35596 1.29859 3.83719 3.85672C1.27906 6.37549 0 9.42556 0 13.0069C0 16.5883 1.27906 19.6384 3.83719 22.1768C7.96955 26.3092 14.9158 25.9943 14.9158 25.9943V19.7958C14.4239 19.7958 13.6565 19.7958 12.9874 19.7958C11.118 19.7958 9.5241 19.1268 8.186 17.8083C6.88726 16.4702 6.21821 14.8567 6.21821 13.0069C6.21821 11.1572 6.86759 9.54363 8.186 8.20553C9.5241 6.88712 11.1377 6.21807 12.9874 6.21807C14.8371 6.21807 16.4704 6.88712 17.8282 8.20553C19.1466 9.54363 19.8156 11.1572 19.8156 13.0069C19.8156 14.8567 19.8156 25.9943 19.8156 25.9943H26.0142V22.4523C25.9158 22.3539 25.8174 22.2752 25.719 22.1768C23.1609 19.6384 21.8818 16.5686 21.8818 12.9676V12.9873Z" fill="#FF002C"/>
<path d="M44.0391 3.83719C41.5007 1.27906 38.4309 0 34.8692 0C31.3075 0 28.2378 1.27906 25.719 3.83719C25.0303 4.50624 24.4399 5.23432 23.948 5.98208C25.3254 8.04826 26.0142 10.3899 26.0142 13.0071V22.4525C28.4739 24.8138 31.4256 25.9945 34.8692 25.9945H47.8566V19.796H34.8692C32.9998 19.796 31.4059 19.1269 30.0678 17.8085C28.7494 16.4704 28.0803 14.8568 28.0803 12.9677C28.0803 11.0787 28.7494 9.50442 30.0678 8.16633C31.4059 6.86758 33.0195 6.19854 34.8692 6.19854C36.7189 6.19854 38.3325 6.84791 39.6706 8.16633C40.989 9.50442 41.6581 11.118 41.6581 12.9677C41.6581 14.8175 41.6581 14.4239 41.6581 14.8962H47.8566C47.8566 14.8962 48.1715 7.94987 44.0391 3.81752V3.83719Z" fill="#EAA8E1"/>
<path d="M23.948 5.98193C22.5705 8.02843 21.8818 10.3701 21.8818 12.9873C21.8818 15.6044 23.1609 19.6384 25.719 22.1965C25.8174 22.2949 25.9158 22.3736 26.0142 22.472V13.0266C26.0142 10.4095 25.3255 8.06779 23.948 6.00161V5.98193Z" fill="white"/>
</svg>
