<svg width="239" height="35" viewBox="0 0 239 35" fill="none" xmlns="http://www.w3.org/2000/svg">
<path d="M105.89 15.0195C104.248 14.0924 102.42 13.6156 100.354 13.6156C98.2875 13.6156 96.4598 14.0924 94.8174 15.046C93.1751 15.9996 91.8771 17.2976 90.9234 18.9135C89.9698 20.5293 89.493 22.3041 89.493 24.2643C89.493 26.2246 89.9433 28.0259 90.8175 29.6417C91.6917 31.2576 92.9102 32.5556 94.4466 33.5357C95.983 34.5158 97.7312 34.9926 99.718 34.9926C101.705 34.9926 103.056 34.5952 104.407 33.7741C105.599 33.0588 106.552 32.1052 107.294 30.9132V34.4893H111.214V24.2643C111.214 22.2511 110.738 20.4234 109.784 18.8075C108.83 17.1917 107.532 15.9202 105.89 14.993V15.0195ZM106.234 27.708C105.652 28.7411 104.857 29.5622 103.824 30.1715C102.791 30.7808 101.652 31.0986 100.38 31.0986C99.1087 31.0986 97.9697 30.7808 96.9366 30.1715C95.93 29.5622 95.1088 28.7411 94.526 27.708C93.9168 26.6749 93.6254 25.5358 93.6254 24.3173C93.6254 23.0988 93.9168 21.9333 94.526 20.9002C95.1088 19.8671 95.93 19.0459 96.9366 18.4367C97.9432 17.8009 99.0822 17.5095 100.38 17.5095C101.678 17.5095 102.817 17.8274 103.824 18.4367C104.857 19.0724 105.652 19.8936 106.234 20.9002C106.817 21.9333 107.109 23.0723 107.109 24.3173C107.109 25.5623 106.817 26.6749 106.234 27.708Z" fill="white"/>
<path d="M120.38 4.79459H116.274V34.5158H120.38V4.79459Z" fill="white"/>
<path d="M129.678 4.79459H125.572V34.5158H129.678V4.79459Z" fill="white"/>
<path d="M149.439 15.3109C148.008 14.4632 146.366 14.0394 144.512 14.0394C142.657 14.0394 140.909 14.5162 139.452 15.4434C137.995 16.397 136.83 17.642 136.009 19.2049C135.187 20.7677 134.79 22.516 134.79 24.4233C134.79 26.3305 135.214 28.1583 136.088 29.7477C136.962 31.337 138.181 32.582 139.717 33.5092C141.28 34.4363 143.002 34.9131 144.909 34.9131C146.816 34.9131 148.247 34.5158 149.704 33.7211C151.161 32.9264 152.353 31.7344 153.306 30.1715L152.141 29.4563C151.319 30.8337 150.26 31.8668 148.988 32.5026C147.717 33.1383 146.339 33.4562 144.856 33.4562C143.373 33.4562 141.518 33.0059 140.141 32.0787C138.763 31.1516 137.73 29.9331 137.042 28.4232C136.538 27.3371 136.273 26.1451 136.22 24.9001H153.915V23.814C153.915 21.8803 153.518 20.185 152.723 18.7545C151.929 17.3241 150.816 16.1586 149.386 15.3374L149.439 15.3109ZM136.326 23.6551C136.432 22.1187 136.83 20.7412 137.545 19.5227C138.234 18.2777 139.187 17.2976 140.379 16.5824C141.571 15.8407 142.949 15.4698 144.485 15.4698C146.022 15.4698 147.426 15.8142 148.618 16.5029C149.836 17.1917 150.763 18.1453 151.478 19.3638C152.167 20.5823 152.538 22.0127 152.564 23.6551H136.353H136.326Z" fill="white"/>
<path d="M167.187 32.5291C167.081 32.8734 166.895 33.1118 166.657 33.2708C166.418 33.4297 166.154 33.5092 165.889 33.5092C165.624 33.5092 165.385 33.4297 165.147 33.2708C164.909 33.1118 164.697 32.8469 164.564 32.5291L157.783 14.4897H156.246L163.24 32.9529C163.478 33.6151 163.849 34.1184 164.352 34.4363C164.829 34.7542 165.359 34.9131 165.915 34.9131C166.471 34.9131 167.001 34.7542 167.505 34.4363C168.008 34.1184 168.352 33.6151 168.591 32.9529L175.584 14.4897H174.047L167.24 32.5291H167.187Z" fill="white"/>
<path d="M192.59 15.3109C191.16 14.4632 189.517 14.0394 187.663 14.0394C185.809 14.0394 184.06 14.5162 182.604 15.4434C181.147 16.397 179.981 17.642 179.186 19.2049C178.365 20.7677 177.968 22.516 177.968 24.4233C177.968 26.3305 178.392 28.1583 179.266 29.7477C180.14 31.337 181.359 32.582 182.895 33.5092C184.458 34.4363 186.18 34.9131 188.087 34.9131C189.994 34.9131 191.425 34.5158 192.881 33.7211C194.338 32.9264 195.53 31.7344 196.484 30.1715L195.318 29.4563C194.497 30.8337 193.438 31.8668 192.166 32.5026C190.895 33.1383 189.517 33.4562 188.034 33.4562C186.55 33.4562 184.696 33.0059 183.319 32.0787C181.941 31.1516 180.908 29.9331 180.219 28.4232C179.716 27.3371 179.451 26.1451 179.398 24.9001H197.093V23.814C197.093 21.8803 196.696 20.185 195.901 18.7545C195.107 17.3241 193.994 16.1586 192.564 15.3374L192.59 15.3109ZM179.478 23.6551C179.584 22.1187 179.981 20.7412 180.696 19.5227C181.385 18.2777 182.339 17.2976 183.531 16.5824C184.723 15.8407 186.1 15.4698 187.637 15.4698C189.173 15.4698 190.577 15.8142 191.769 16.5029C192.987 17.1917 193.915 18.1453 194.63 19.3638C195.318 20.5823 195.689 22.0127 195.716 23.6551H179.504H179.478Z" fill="white"/>
<path d="M216.563 15.4169C215.159 14.5427 213.464 14.1189 211.504 14.1189C209.543 14.1189 207.98 14.5427 206.603 15.4169C205.226 16.291 204.139 17.483 203.398 19.0194C202.656 20.5558 202.285 22.2511 202.285 24.1849V34.5423H203.742V24.2379C203.742 22.675 204.033 21.2445 204.643 19.9466C205.226 18.6221 206.126 17.5625 207.292 16.7413C208.457 15.9202 209.861 15.5228 211.53 15.5228C213.199 15.5228 214.709 15.9202 215.874 16.7413C217.04 17.5625 217.967 18.6221 218.603 19.9731C219.238 21.2975 219.556 22.7544 219.556 24.3438V34.5687H221.013V24.1849C221.013 22.2776 220.642 20.5558 219.874 19.0459C219.106 17.536 218.02 16.344 216.616 15.4698L216.563 15.4169Z" fill="white"/>
<path d="M238.443 15.8407V14.4632H229.887V9.11237H228.43V14.4632H223.98V15.8407H228.43V28.3967C228.43 29.7212 228.695 30.8867 229.199 31.8403C229.702 32.8204 230.417 33.5622 231.318 34.0919C232.218 34.6217 233.278 34.8866 234.496 34.8866C235.715 34.8866 235.953 34.7807 236.642 34.5423C237.331 34.3039 237.914 33.986 238.443 33.5622V32.0258C237.94 32.4761 237.357 32.8469 236.722 33.1383C236.059 33.4297 235.344 33.5622 234.576 33.5622C233.172 33.5622 232.033 33.0853 231.159 32.1582C230.311 31.2311 229.861 29.9861 229.861 28.3967V15.8407H238.417H238.443Z" fill="white"/>
<path d="M29.4944 17.483C29.4944 13.9599 30.4215 10.8342 32.2758 8.0528C31.6135 7.0462 30.8188 6.09258 29.9182 5.19194C26.5011 1.7483 22.3687 0.0264893 17.5211 0.0264893C12.6736 0.0264893 8.59419 1.7483 5.20353 5.19194C1.7599 8.58259 0.0380859 12.6885 0.0380859 17.5095C0.0380859 22.3306 1.7599 26.4365 5.20353 29.8536C10.7663 35.4164 20.1171 34.9926 20.1171 34.9926V26.6484C19.4549 26.6484 18.4218 26.6484 17.5211 26.6484C15.0046 26.6484 12.859 25.7478 11.0577 23.973C9.3094 22.1717 8.40876 19.9995 8.40876 17.5095C8.40876 15.0195 9.28291 12.8474 11.0577 11.0461C12.859 9.27132 15.0311 8.37067 17.5211 8.37067C20.0111 8.37067 22.2098 9.27132 24.0375 11.0461C25.8123 12.8474 26.713 15.0195 26.713 17.5095C26.713 19.9995 26.713 34.9926 26.713 34.9926H35.0572V30.2245C34.9247 30.092 34.7923 29.9861 34.6598 29.8536C31.2162 26.4365 29.4944 22.3041 29.4944 17.4566V17.483Z" fill="#FF002C"/>
<path d="M59.3215 5.16545C55.9044 1.72182 51.772 0 46.9774 0C42.1828 0 38.0505 1.72182 34.6598 5.16545C33.7327 6.06609 32.938 7.04621 32.2758 8.0528C34.13 10.8342 35.0572 13.9864 35.0572 17.5095V30.2245C38.3684 33.4032 42.3418 34.9926 46.9774 34.9926H64.4605V26.6484H46.9774C44.4609 26.6484 42.3153 25.7478 40.514 23.973C38.7392 22.1717 37.8386 19.9996 37.8386 17.4566C37.8386 14.9136 38.7392 12.7944 40.514 10.9931C42.3153 9.24482 44.4874 8.34418 46.9774 8.34418C49.4674 8.34418 51.6396 9.21834 53.4409 10.9931C55.2157 12.7944 56.1163 14.9666 56.1163 17.4566C56.1163 19.9466 56.1163 19.4168 56.1163 20.0525H64.4605C64.4605 20.0525 64.8843 10.7018 59.3215 5.13896V5.16545Z" fill="#EAA8E1"/>
<path d="M32.2758 8.0528C30.4215 10.8077 29.4944 13.9599 29.4944 17.483C29.4944 21.0061 31.2162 26.4365 34.6598 29.8801C34.7923 30.0126 34.9247 30.1185 35.0572 30.251V17.536C35.0572 14.0129 34.13 10.8607 32.2758 8.07929V8.0528Z" fill="white"/>
</svg>
