<svg width="87" height="85" viewBox="0 0 87 85" fill="none" xmlns="http://www.w3.org/2000/svg">
<path d="M85.0659 30.403C82.1049 21.289 74.8829 14.728 66.3209 12.201C61.2699 4.84 52.8009 0 43.2189 0C33.6369 0 25.1659 4.841 20.1159 12.203C11.5539 14.731 4.3329 21.29 1.3719 30.404C-1.5861 39.509 0.393904 49.051 5.8239 56.127C5.7769 57.849 5.8829 59.587 6.1579 61.326C7.3279 68.713 11.3039 75.202 17.3549 79.597C22.3149 83.201 28.0699 84.936 33.7769 84.935C36.9819 84.935 40.1709 84.384 43.1949 83.313C44.8179 83.89 46.5039 84.326 48.2419 84.601C49.7239 84.835 51.2079 84.952 52.6809 84.952C58.5449 84.952 64.2429 83.111 69.0789 79.598C75.1299 75.202 79.1059 68.713 80.2759 61.327C80.5509 59.589 80.6569 57.85 80.6109 56.128C86.0429 49.05 88.0239 39.508 85.0659 30.403ZM84.1149 30.712C86.8359 39.085 85.2259 47.843 80.5299 54.554C80.1079 49.519 78.3219 44.679 75.2759 40.486C73.8249 38.488 72.1409 36.722 70.2759 35.202C70.8879 32.903 71.2189 30.49 71.2189 28C71.2189 22.712 69.7449 17.763 67.1869 13.54C74.9349 16.208 81.3929 22.337 84.1149 30.712ZM16.2189 28C16.2189 22.489 17.8819 17.36 20.7279 13.084C23.0809 12.421 25.5299 12.054 28.0209 12.054C30.7789 12.054 33.5839 12.481 36.3459 13.378C38.4889 14.074 40.4829 15.018 42.3129 16.163C37.7409 19.387 34.2999 23.886 32.3269 28.984C31.3639 29.037 30.3989 29.137 29.4339 29.29C24.8559 30.015 20.6239 31.82 17.0209 34.527C16.4999 32.435 16.2189 30.25 16.2189 28ZM69.4169 34.526C65.8129 31.819 61.5809 30.014 57.0029 29.289C56.0379 29.136 55.0729 29.037 54.1109 28.984C52.1379 23.885 48.6969 19.386 44.1249 16.162C45.9549 15.018 47.9489 14.074 50.0919 13.377C52.8549 12.479 55.6569 12.053 58.4169 12.053C60.9079 12.053 63.3569 12.42 65.7099 13.083C68.5559 17.36 70.2189 22.489 70.2189 28C70.2189 30.25 69.9379 32.435 69.4169 34.526ZM43.2189 55C40.7019 55 38.2679 54.646 35.9549 53.999C34.6239 51.999 33.5359 49.793 32.7579 47.399C31.9799 45.005 31.5639 42.58 31.4649 40.179C32.9559 38.296 34.7179 36.579 36.7539 35.099C38.7649 33.638 40.9339 32.484 43.2019 31.636C45.4809 32.485 47.6649 33.631 49.6859 35.099C51.7219 36.578 53.4839 38.296 54.9749 40.179C54.8759 42.579 54.4599 45.004 53.6819 47.398C52.9039 49.792 51.8149 51.998 50.4849 53.998C48.1709 54.647 45.7359 55 43.2189 55ZM49.5919 55.26C47.7989 57.645 45.6389 59.689 43.2199 61.337C40.8009 59.689 38.6409 57.645 36.8469 55.26C38.8959 55.739 41.0269 56 43.2189 56C45.4119 56 47.5429 55.739 49.5919 55.26ZM34.4869 53.543C31.6619 52.574 29.0469 51.151 26.7299 49.358C27.5499 46.548 28.8269 43.861 30.5419 41.418C30.7199 43.515 31.1299 45.623 31.8069 47.708C32.4849 49.796 33.3969 51.741 34.4869 53.543ZM31.4449 38.636C31.4939 35.651 32.0399 32.727 33.0289 29.971C33.3099 29.962 33.5919 29.938 33.8719 29.938C36.5609 29.938 39.2099 30.352 41.7539 31.137C39.7999 31.964 37.9239 33.014 36.1649 34.292C34.3919 35.58 32.8209 37.045 31.4449 38.636ZM44.6749 31.133C47.4859 30.265 50.4279 29.866 53.4049 29.959C54.3969 32.719 54.9439 35.648 54.9929 38.637C53.6169 37.045 52.0459 35.581 50.2719 34.292C48.5109 33.012 46.6319 31.961 44.6749 31.133ZM54.6319 47.708C55.3089 45.623 55.7189 43.515 55.8969 41.418C57.6109 43.861 58.8879 46.547 59.7079 49.357C57.3909 51.15 54.7769 52.573 51.9519 53.542C53.0419 51.741 53.9539 49.796 54.6319 47.708ZM55.9859 39.852C56.0809 36.469 55.5599 33.139 54.4879 30.012C55.2729 30.068 56.0599 30.152 56.8459 30.277C61.3949 30.997 65.5879 32.826 69.1299 35.57C67.6139 40.752 64.5859 45.293 60.5529 48.679C59.5839 45.524 58.0489 42.53 55.9859 39.852ZM53.0199 28.945C49.6609 28.89 46.3509 29.441 43.2189 30.562C40.0869 29.441 36.7769 28.89 33.4179 28.945C35.3919 24.073 38.7689 19.798 43.2189 16.758C47.6699 19.798 51.0469 24.073 53.0199 28.945ZM29.5909 30.277C30.3779 30.152 31.1639 30.07 31.9489 30.014C30.8779 33.14 30.3579 36.469 30.4519 39.851C28.3899 42.529 26.8539 45.524 25.8839 48.679C21.8509 45.293 18.8239 40.752 17.3069 35.57C20.8489 32.826 25.0419 30.997 29.5909 30.277ZM25.5859 49.73C24.1799 55.019 24.3179 60.687 26.1239 65.988C23.9709 65.838 21.8029 65.43 19.6589 64.734C14.3989 63.025 10.0229 59.843 6.8319 55.795C7.0459 50.527 8.80191 45.436 11.9709 41.074C13.2849 39.266 14.7929 37.651 16.4599 36.248C18.1139 41.603 21.3359 46.275 25.5859 49.73ZM26.4439 50.405C29.0899 52.391 32.0999 53.914 35.3499 54.867C37.2579 57.65 39.6209 60.034 42.3159 61.929C37.8519 64.718 32.5999 66.195 27.2049 66.038C25.3909 60.959 25.1729 55.51 26.4439 50.405ZM27.9829 67.058C33.4469 67.058 38.7289 65.427 43.2189 62.522C47.7089 65.428 52.9909 67.058 58.4549 67.058C58.5869 67.058 58.7209 67.044 58.8539 67.042C58.0459 69.048 56.9859 70.988 55.6579 72.814C52.4069 77.288 48.0279 80.467 43.1919 82.251C38.2479 80.42 33.9489 77.177 30.7799 72.814C29.4529 70.987 28.3929 69.047 27.5839 67.042C27.7169 67.044 27.8509 67.058 27.9829 67.058ZM44.1209 61.929C46.8169 60.034 49.1789 57.65 51.0869 54.867C54.3379 53.913 57.3469 52.391 59.9929 50.405C61.2639 55.51 61.0459 60.959 59.2309 66.038C53.8379 66.194 48.5859 64.717 44.1209 61.929ZM60.8519 49.73C65.1019 46.275 68.3229 41.603 69.9769 36.248C71.6439 37.651 73.1519 39.266 74.4659 41.074C77.6359 45.436 79.3919 50.527 79.6049 55.795C76.4139 59.843 72.0379 63.025 66.7779 64.734C64.6349 65.43 62.4669 65.838 60.3129 65.988C62.1199 60.687 62.2579 55.019 60.8519 49.73ZM43.2189 1C52.0309 1 59.8689 5.245 64.7999 11.795C59.9879 10.663 54.8189 10.789 49.7829 12.426C47.4129 13.196 45.2179 14.258 43.2189 15.553C41.2199 14.258 39.0249 13.196 36.6549 12.426C31.6189 10.79 26.4499 10.664 21.6369 11.796C26.5679 5.245 34.4059 1 43.2189 1ZM2.3229 30.712C5.0449 22.336 11.5019 16.207 19.2499 13.54C16.6929 17.763 15.2189 22.712 15.2189 28C15.2189 30.49 15.5499 32.903 16.1629 35.203C14.2979 36.722 12.6139 38.489 11.1629 40.487C8.11691 44.68 6.3309 49.52 5.9089 54.555C1.2119 47.842 -0.397095 39.085 2.3229 30.712ZM17.9439 78.787C12.1099 74.548 8.27491 68.291 7.1469 61.168C6.9449 59.894 6.8379 58.619 6.8169 57.352C10.0469 61.104 14.3079 64.047 19.3509 65.685C21.7209 66.455 24.1169 66.873 26.4949 67C27.3519 69.228 28.5049 71.382 29.9729 73.403C33.0189 77.595 37.0699 80.789 41.7279 82.746C33.8919 85.138 25.0659 83.962 17.9439 78.787ZM79.2909 61.168C78.1619 68.291 74.3279 74.548 68.4929 78.787C62.6579 83.026 55.5239 84.74 48.3989 83.611C47.1219 83.409 45.8749 83.116 44.6599 82.744C49.2289 80.832 53.3479 77.692 56.4659 73.402C57.9339 71.381 59.0869 69.227 59.9429 66.999C62.3199 66.871 64.7179 66.454 67.0869 65.684C72.1289 64.045 76.3909 61.103 79.6209 57.351C79.5999 58.619 79.4929 59.894 79.2909 61.168Z" fill="url(#paint0_linear_24_224)"/>
<defs>
<linearGradient id="paint0_linear_24_224" x1="43.2188" y1="0" x2="43.2188" y2="84.952" gradientUnits="userSpaceOnUse">
<stop stop-color="white"/>
<stop offset="1" stop-color="#191E24"/>
</linearGradient>
</defs>
</svg>
