<svg width="19" height="19" viewBox="0 0 19 19" fill="none" xmlns="http://www.w3.org/2000/svg">
<g clip-path="url(#clip0_7_21)">
<path d="M0.0905762 18.5L1.38663 13.6834C0.656366 12.3644 0.268208 10.8879 0.268208 9.39172C0.268208 4.48979 4.26163 0.5 9.1761 0.5C14.0906 0.5 18.0906 4.48979 18.0906 9.39172C18.0906 14.2937 14.0906 18.2834 9.1761 18.2834C7.70242 18.2834 6.24189 17.9094 4.93926 17.2073L0.0905762 18.5066L0.0905762 18.5ZM5.18268 15.3961L5.48531 15.5798C6.60373 16.2492 7.88005 16.597 9.1761 16.597C13.1629 16.597 16.4064 13.3618 16.4064 9.38516C16.4064 5.40849 13.1629 2.17991 9.1761 2.17991C5.18926 2.17991 1.95242 5.41506 1.95242 9.39172C1.95242 10.7042 2.32084 11.9969 3.01163 13.1322L3.19584 13.4406L2.47216 16.1311L5.18268 15.4092V15.3961Z" fill="white"/>
<path fill-rule="evenodd" clip-rule="evenodd" d="M12.4918 10.6254C12.1234 10.4089 11.6497 10.1595 11.2155 10.3367C10.8866 10.4745 10.6695 10.9929 10.4589 11.2554C10.3471 11.3932 10.2155 11.4129 10.0511 11.3472C8.80763 10.8551 7.85368 10.0217 7.16947 8.87988C7.05105 8.7027 7.07079 8.56489 7.21552 8.40084C7.42605 8.15804 7.68263 7.88243 7.74184 7.55432C7.80105 7.22621 7.64316 6.83904 7.505 6.55031C7.33395 6.17627 7.13658 5.64473 6.76158 5.43474C6.41947 5.23788 5.96552 5.34943 5.65631 5.5988C5.12342 6.0319 4.86684 6.7078 4.88 7.37058C4.88 7.56088 4.90631 7.75118 4.95237 7.93492C5.05763 8.37459 5.26158 8.788 5.49184 9.18173C5.66289 9.47703 5.85368 9.76577 6.05763 10.0414C6.7221 10.9404 7.55105 11.7279 8.51158 12.3119C8.99184 12.6072 9.505 12.8631 10.0379 13.0403C10.6366 13.2371 11.1695 13.4406 11.8208 13.3225C12.4984 13.1912 13.1695 12.7778 13.4326 12.1216C13.5116 11.9313 13.551 11.7147 13.505 11.5113C13.4129 11.0913 12.8405 10.842 12.4984 10.6385L12.4918 10.6254Z" fill="white"/>
</g>
<defs>
<clipPath id="clip0_7_21">
<rect width="18" height="18" fill="white" transform="translate(0.0905762 0.5)"/>
</clipPath>
</defs>
</svg>
